<?xml version="1.0" ?><svg viewBox="0 0 512 512" xmlns="http://www.w3.org/2000/svg"><g data-name="3D_Entertainment" id="_3D_Entertainment"><path d="M437.2871,268.4834,410.9648,146.3457c-.0078-.0376-.0166-.0747-.0253-.1123A44.45,44.45,0,0,0,391.78,118.799a32.8567,32.8567,0,0,0-21.0791-7.6138H324.69a16.4966,16.4966,0,0,0-16.4968,16.4967v0A16.4966,16.4966,0,0,0,324.69,144.1787H356.166v117.99H155.834v-117.99H187.31a16.4966,16.4966,0,0,0,16.4968-16.4967v0A16.4966,16.4966,0,0,0,187.31,111.1852H141.2988A32.8567,32.8567,0,0,0,120.22,118.799a44.45,44.45,0,0,0-19.1592,27.4344c-.0087.0376-.0175.0747-.0253.1123L74.7129,268.4834a7.9772,7.9772,0,0,0-.0559,3.019l-.01.0113L90.73,365.8389a41.3794,41.3794,0,0,0,40.8916,34.51h98.3955a7.9994,7.9994,0,0,0,7.8857-6.6553l6.6241-38.8457h22.9472l6.6241,38.8457a7.9994,7.9994,0,0,0,7.8857,6.6553h98.3955a41.3794,41.3794,0,0,0,40.8916-34.51l16.082-94.3252-.01-.0113A7.9772,7.9772,0,0,0,437.2871,268.4834ZM372.166,128.03a28.4532,28.4532,0,0,1,23.1709,21.7485l24.2217,112.3906H372.166ZM116.6631,149.7783A28.4532,28.4532,0,0,1,139.834,128.03V262.1689H92.4414ZM405.499,363.1494a25.42,25.42,0,0,1-25.12,21.2H288.7354l-6.6241-38.8457a8,8,0,0,0-7.8857-6.6553H237.7744a8,8,0,0,0-7.8857,6.6553l-6.6241,38.8457H131.6211a25.42,25.42,0,0,1-25.12-21.2l-14.4883-84.98H419.9873Z"/><path d="M207.459,297.5869h-81.82a7.9987,7.9987,0,0,0-7.8858,9.3447l8.7549,51.3443a8,8,0,0,0,7.8858,6.6553h64.3115a8,8,0,0,0,7.8857-6.6553l8.7539-51.3443a7.9987,7.9987,0,0,0-7.8857-9.3447Z"/><path d="M299.1357,300.4272a8.0006,8.0006,0,0,0-1.7714,6.5044l8.7548,51.3443a8,8,0,0,0,7.8858,6.6553h64.3115a8,8,0,0,0,7.8857-6.6553l8.754-51.3443a7.9987,7.9987,0,0,0-7.8858-9.3447H305.25A8.0022,8.0022,0,0,0,299.1357,300.4272Z"/></g></svg>