<?xml version="1.0" standalone="no"?>
<!DOCTYPE svg PUBLIC "-//W3C//DTD SVG 20010904//EN"
 "http://www.w3.org/TR/2001/REC-SVG-20010904/DTD/svg10.dtd">
<svg version="1.0" xmlns="http://www.w3.org/2000/svg"
 width="512.000000pt" height="512.000000pt" viewBox="0 0 512.000000 512.000000"
 preserveAspectRatio="xMidYMid meet">
<metadata>
Created by potrace 1.11, written by Peter Selinger 2001-2013
</metadata>
<g transform="translate(0.000000,512.000000) scale(0.100000,-0.100000)"
fill="#000000" stroke="none">
<path d="M2530 5009 c0 -3 -16 -5 -35 -4 -19 0 -35 -4 -35 -10 0 -5 -4 -4 -9
4 -8 12 -12 12 -25 2 -13 -11 -16 -11 -16 0 0 10 -3 10 -12 1 -7 -7 -17 -8
-29 -2 -10 6 -20 6 -23 2 -3 -4 -23 -8 -45 -7 -23 1 -41 -3 -41 -7 0 -5 -10
-4 -21 3 -15 8 -19 8 -15 0 8 -12 -3 -14 -48 -11 -21 1 -26 -2 -20 -12 6 -10
4 -10 -9 1 -9 7 -17 9 -17 5 0 -5 -15 -10 -32 -11 -43 -3 -140 -27 -134 -34 3
-3 -8 -4 -24 -3 -17 1 -30 -1 -30 -5 0 -4 -6 -8 -12 -8 -24 -1 -97 -24 -102
-32 -3 -5 -17 -7 -31 -6 -14 2 -25 -1 -25 -6 0 -5 -9 -9 -20 -9 -11 0 -20 -6
-20 -12 0 -10 -2 -10 -9 0 -7 11 -9 10 -15 -3 -3 -9 -10 -14 -16 -10 -5 3 -17
1 -27 -4 -50 -27 -86 -40 -96 -34 -6 3 -7 1 -3 -5 4 -7 1 -12 -9 -12 -9 0 -30
-9 -46 -21 -16 -11 -29 -18 -29 -15 0 3 -19 -6 -42 -20 -24 -13 -51 -27 -60
-31 -10 -3 -18 -9 -18 -14 0 -5 -5 -9 -11 -9 -7 0 -34 -16 -61 -36 -28 -19
-47 -30 -43 -22 4 7 -3 2 -15 -12 -12 -14 -18 -18 -15 -10 4 8 -6 1 -23 -17
-16 -17 -33 -29 -36 -26 -3 4 -6 0 -6 -7 0 -7 -3 -11 -6 -7 -3 3 -17 -6 -30
-20 -13 -14 -24 -22 -24 -17 0 5 -5 1 -11 -9 -6 -9 -14 -15 -20 -12 -5 4 -9
-1 -9 -10 0 -9 -4 -14 -8 -11 -5 3 -16 -3 -24 -12 -9 -9 -42 -39 -74 -67 -31
-27 -72 -64 -90 -81 -18 -17 -36 -29 -40 -25 -4 3 -5 1 -1 -4 3 -6 -26 -44
-64 -85 -38 -41 -69 -78 -69 -83 0 -4 -4 -5 -10 -2 -6 4 -7 -1 -3 -11 4 -12 3
-15 -5 -10 -7 4 -12 1 -12 -8 0 -8 -8 -20 -18 -25 -9 -6 -13 -11 -9 -11 5 0 2
-7 -5 -15 -31 -34 -36 -43 -31 -49 4 -3 -1 -6 -10 -6 -10 0 -17 -3 -16 -7 3
-19 -15 -53 -27 -53 -7 0 -16 -5 -20 -12 -5 -7 -3 -8 7 -3 8 5 5 -1 -5 -13
-11 -12 -15 -22 -10 -22 5 -1 -1 -9 -13 -19 -12 -10 -19 -21 -16 -25 3 -3 -2
-8 -11 -12 -9 -3 -13 -11 -9 -17 3 -5 -2 -16 -11 -23 -10 -7 -17 -15 -18 -18
0 -20 -12 -46 -20 -46 -5 0 -6 -4 -3 -10 3 -5 1 -10 -4 -10 -6 0 -10 -3 -10
-7 3 -21 -2 -34 -11 -28 -6 4 -9 3 -8 -2 4 -12 -44 -116 -57 -125 -5 -4 -6 -8
-2 -8 4 0 2 -10 -5 -22 -11 -22 -14 -28 -21 -60 -1 -7 -6 -19 -10 -25 -5 -7
-5 -13 0 -13 4 0 2 -4 -6 -9 -7 -5 -13 -21 -13 -36 0 -14 -6 -29 -13 -31 -7
-3 -12 -13 -10 -22 1 -9 0 -21 -4 -27 -6 -10 -10 -28 -13 -57 -1 -10 -6 -18
-10 -18 -4 0 -5 -9 -3 -20 2 -11 0 -20 -6 -20 -5 0 -8 -3 -8 -7 1 -5 0 -10 -1
-13 -1 -3 -3 -14 -5 -25 -2 -11 -6 -36 -10 -55 -3 -19 -8 -46 -10 -60 -1 -14
-6 -41 -10 -60 -11 -56 -12 -74 -2 -88 7 -9 6 -11 -4 -7 -11 4 -14 -14 -16
-92 -1 -54 -4 -115 -7 -136 -3 -21 -2 -35 3 -32 5 3 7 -4 4 -15 -3 -11 -10
-17 -17 -13 -8 5 -8 3 0 -8 6 -8 11 -33 10 -57 -1 -23 2 -42 5 -42 3 0 5 -21
4 -47 -1 -27 2 -56 6 -65 6 -10 5 -19 -1 -23 -5 -3 -10 -11 -10 -16 0 -6 3 -8
8 -5 4 2 8 -10 9 -27 3 -44 20 -162 23 -162 1 0 3 -13 5 -30 5 -42 9 -57 24
-84 9 -17 10 -21 1 -16 -9 6 -9 2 -1 -14 7 -12 9 -26 6 -31 -3 -6 -2 -10 3
-10 5 0 12 -17 16 -37 3 -21 12 -51 20 -66 9 -15 11 -25 6 -22 -4 3 0 -13 11
-34 10 -22 19 -46 19 -54 0 -7 4 -17 10 -23 5 -5 11 -23 12 -38 2 -16 8 -30
15 -33 6 -3 10 -13 8 -23 -2 -10 3 -21 11 -24 9 -3 12 -10 9 -16 -3 -5 -1 -10
5 -10 6 0 8 -4 5 -10 -3 -5 -1 -10 6 -10 6 0 9 -8 6 -20 -3 -11 0 -18 7 -17 6
1 9 -7 8 -18 -2 -11 0 -17 4 -13 7 8 46 -66 47 -89 0 -7 5 -11 11 -10 6 1 10
-6 9 -16 0 -10 2 -16 5 -13 9 10 34 -33 26 -46 -4 -7 -3 -8 4 -4 7 4 12 1 12
-7 0 -8 7 -20 15 -27 8 -7 12 -16 9 -21 -3 -5 0 -9 5 -9 6 0 11 -7 11 -15 0
-9 7 -18 15 -21 8 -4 13 -9 10 -13 -2 -4 5 -14 16 -21 10 -8 19 -20 19 -28 0
-7 7 -15 15 -18 8 -4 13 -9 10 -13 -2 -4 5 -14 16 -21 10 -8 19 -20 19 -26 0
-7 7 -15 16 -18 8 -3 13 -10 10 -14 -3 -5 6 -15 19 -22 13 -7 22 -17 19 -22
-3 -4 2 -11 10 -14 9 -3 14 -10 11 -14 -3 -5 4 -11 15 -15 11 -3 20 -11 20
-16 0 -6 25 -35 55 -64 30 -30 55 -52 55 -49 0 3 7 -1 15 -10 8 -8 15 -20 15
-27 0 -7 3 -10 6 -6 3 3 16 -5 29 -19 12 -13 27 -24 34 -24 6 0 11 -6 11 -14
0 -8 5 -18 12 -22 7 -5 8 -2 3 7 -4 8 1 5 12 -6 28 -27 62 -55 68 -55 6 0 91
-65 111 -85 9 -8 22 -15 30 -15 8 0 14 -4 14 -10 0 -5 7 -10 15 -10 8 0 23 -9
32 -19 9 -11 20 -18 25 -15 4 3 11 -2 14 -10 3 -9 10 -14 14 -11 4 2 20 -7 36
-20 16 -14 37 -25 47 -25 10 0 16 -4 13 -8 -2 -4 5 -9 16 -9 12 -1 25 -8 29
-15 5 -7 9 -9 9 -5 0 5 16 -1 35 -13 19 -12 40 -18 46 -14 8 4 9 3 5 -4 -4 -7
-2 -12 4 -12 6 0 30 -9 52 -20 23 -11 50 -20 60 -20 10 0 18 -4 18 -8 0 -5 6
-9 13 -9 15 -1 80 -26 87 -33 3 -3 12 -5 20 -5 8 1 20 -3 27 -8 7 -5 17 -6 23
-2 5 3 10 1 10 -5 0 -7 6 -10 14 -7 8 3 17 1 20 -6 3 -9 5 -9 5 1 1 10 6 9 24
-2 12 -7 34 -13 49 -12 14 1 24 -2 22 -6 -3 -4 6 -8 19 -8 13 0 27 -3 31 -7 4
-4 24 -8 44 -9 20 -1 37 -2 37 -3 0 -4 70 -14 93 -13 12 0 22 -3 22 -7 0 -8 5
-8 160 -13 63 -2 121 -8 129 -12 10 -7 12 -5 6 5 -8 12 -6 12 8 0 9 -7 17 -10
17 -5 0 5 57 10 126 11 70 1 134 5 143 9 9 4 34 8 56 9 22 1 40 3 40 5 0 4
104 21 143 23 12 0 22 5 22 10 0 4 5 5 10 2 6 -3 10 -1 10 6 0 9 3 9 14 0 11
-9 16 -9 21 -1 4 7 16 10 26 7 11 -3 23 2 29 11 5 10 10 13 10 9 0 -4 10 -3
21 4 15 7 19 8 15 0 -4 -6 13 -2 38 8 24 11 47 17 50 14 3 -4 6 -1 6 6 0 7 4
10 9 6 5 -3 17 2 25 11 9 8 16 12 16 8 0 -3 8 0 17 7 12 10 15 10 9 1 -6 -10
-2 -10 18 0 14 6 26 15 26 20 0 4 3 7 8 6 15 -4 72 14 72 23 0 5 6 9 13 9 6 0
33 11 58 25 26 13 49 21 53 18 3 -4 6 -1 6 6 0 7 5 9 10 6 6 -3 10 -3 10 2 0
9 61 39 73 35 5 -1 6 2 2 8 -3 5 -1 10 5 10 6 0 31 13 54 30 24 16 49 30 56
32 13 3 30 15 72 50 11 10 25 15 31 11 6 -3 7 -1 3 6 -4 6 0 14 11 18 10 4 23
14 30 22 7 9 13 13 13 9 0 -5 9 0 19 10 57 52 74 65 66 52 -5 -8 21 15 58 53
37 37 69 67 71 67 8 0 103 99 99 103 -2 2 8 12 22 21 14 9 23 21 20 26 -4 6 1
7 11 3 11 -4 15 -3 11 4 -4 6 5 21 19 32 15 12 24 21 20 21 -7 0 5 17 42 57
12 13 20 29 17 34 -4 5 1 9 9 9 9 0 16 5 16 11 0 6 6 17 13 24 25 28 33 41 53
75 10 19 25 41 32 48 6 7 12 20 12 28 0 8 4 14 10 14 5 0 12 11 16 25 3 14 9
25 13 25 4 0 13 16 21 35 8 19 18 35 22 35 5 0 7 4 4 9 -3 5 1 14 9 21 8 7 12
16 9 21 -3 5 0 9 6 9 6 0 9 4 5 9 -3 5 0 15 7 23 7 7 14 20 16 28 2 8 11 24
20 34 11 13 12 17 3 11 -11 -6 -10 -2 2 16 9 13 17 32 17 42 0 10 4 16 9 13 5
-3 11 12 15 34 3 22 11 40 17 40 5 0 7 5 4 10 -4 6 -1 17 5 25 7 8 9 15 5 15
-4 0 -2 7 5 15 7 8 10 22 6 30 -3 9 -2 14 3 11 12 -8 20 15 17 52 -1 17 2 29
6 26 8 -5 12 17 9 44 -1 6 2 12 8 12 5 0 8 8 6 18 -1 9 2 28 8 42 5 14 11 43
12 65 2 22 4 42 5 45 1 3 2 8 1 13 0 4 3 7 7 7 4 0 8 18 7 40 -1 22 2 40 6 40
4 0 6 9 4 20 -2 11 -1 20 3 20 4 0 6 19 6 42 -1 24 3 48 8 55 5 7 5 14 -1 17
-7 4 -7 15 -1 31 6 16 5 25 -3 29 -8 3 -9 7 -2 13 12 9 17 195 5 188 -9 -5 -6
27 4 43 4 6 3 12 -2 12 -4 0 -8 21 -9 48 -1 101 -3 113 -15 106 -10 -6 -10 -5
-1 8 7 8 10 18 6 22 -4 4 -8 25 -9 46 -1 22 -7 47 -14 55 -9 11 -9 15 -1 15 7
0 9 5 6 11 -4 5 -8 20 -10 32 -5 27 -13 62 -15 62 -3 0 -22 85 -23 103 0 6 -4
12 -8 12 -4 0 -5 8 -2 19 3 10 0 22 -6 25 -5 4 -8 13 -4 21 3 8 0 15 -7 15 -6
0 -8 5 -5 10 3 6 2 10 -2 10 -5 0 -10 12 -11 27 -1 15 -8 30 -15 35 -6 4 -8 8
-4 8 4 0 2 10 -5 23 -12 21 -13 26 -16 55 -1 7 -6 11 -11 8 -5 -4 -8 2 -7 11
2 10 -3 28 -11 40 -8 12 -11 28 -7 34 4 7 3 9 -4 5 -10 -6 -28 30 -24 47 1 4
-3 7 -10 7 -6 0 -8 3 -5 7 4 3 2 12 -4 20 -6 7 -8 13 -3 13 5 0 2 5 -6 10 -8
5 -16 13 -16 17 -5 26 -18 53 -25 53 -5 0 -9 6 -9 14 0 7 -7 19 -15 26 -8 7
-12 16 -9 21 3 5 0 9 -5 9 -6 0 -11 7 -11 16 0 8 -4 13 -8 10 -7 -4 -34 45
-33 59 1 3 -7 14 -16 24 -35 38 -48 56 -48 64 0 4 -7 12 -15 17 -8 5 -11 10
-7 10 4 0 -4 12 -18 26 -14 14 -22 30 -19 36 4 7 2 8 -4 4 -7 -4 -12 -1 -12 8
0 9 -4 16 -10 16 -5 0 -10 7 -10 16 0 8 -4 12 -10 9 -5 -3 -10 -1 -10 4 0 6
-18 28 -40 50 -22 21 -40 44 -40 50 0 7 -4 9 -10 6 -5 -3 -10 -2 -10 4 0 14
-197 201 -212 201 -4 0 -8 7 -8 16 0 9 -5 14 -12 12 -6 -2 -25 9 -42 25 -17
16 -48 40 -68 53 -21 13 -38 29 -38 35 0 5 -4 7 -10 4 -5 -3 -10 -1 -10 4 0 6
-7 11 -15 11 -8 0 -15 5 -15 10 0 6 -7 10 -15 10 -8 0 -15 5 -15 11 0 5 -4 8
-9 5 -4 -3 -16 3 -26 14 -10 11 -22 17 -26 14 -5 -3 -9 0 -9 5 0 6 -7 11 -15
11 -9 0 -18 6 -21 14 -3 9 -12 12 -21 9 -11 -4 -14 -2 -9 5 5 8 0 12 -13 12
-12 0 -21 5 -21 10 0 6 -7 10 -15 10 -18 0 -57 20 -67 35 -4 6 -8 7 -8 2 0 -4
-11 0 -25 9 -14 9 -25 13 -25 9 0 -3 -7 1 -16 9 -8 9 -24 16 -35 16 -10 0 -19
5 -19 11 0 5 -4 7 -10 4 -5 -3 -10 -2 -10 4 0 5 -9 8 -20 6 -11 -2 -20 0 -20
6 0 5 -9 9 -20 9 -11 0 -20 4 -20 9 0 5 -6 9 -12 8 -35 -1 -49 4 -42 15 4 6 3
8 -4 4 -6 -3 -22 -2 -36 4 -27 10 -72 21 -93 22 -7 1 -13 5 -13 10 0 4 -3 7
-7 7 -25 -4 -63 2 -59 9 3 5 -7 9 -22 10 -31 1 -53 5 -67 13 -5 3 -26 5 -47 5
-20 -1 -34 2 -32 6 3 4 -4 6 -13 6 -33 -2 -162 18 -170 26 -3 2 -17 0 -33 -4
-16 -4 -31 -6 -34 -2 -3 3 -26 6 -51 7 -31 2 -43 -1 -38 -9 4 -6 -1 -5 -10 3
-17 13 -97 22 -97 10z m0 -170 c0 10 55 9 66 -2 4 -4 13 -2 21 4 7 6 13 7 13
3 0 -5 30 -10 68 -10 81 -1 144 -6 156 -12 8 -5 72 -11 134 -15 12 0 22 -4 22
-8 0 -4 12 -6 26 -3 18 3 23 1 18 -7 -4 -7 -2 -10 7 -7 8 3 22 1 32 -4 12 -6
17 -5 17 4 1 8 5 7 14 -4 7 -10 16 -15 19 -12 3 4 14 3 24 -1 10 -5 21 -7 26
-7 4 1 7 -2 7 -7 0 -4 11 -6 25 -3 15 2 25 0 25 -7 0 -6 9 -11 20 -11 11 0 20
-4 20 -9 0 -6 9 -8 20 -6 11 2 20 0 20 -6 0 -5 3 -8 8 -8 17 3 72 -14 72 -23
0 -5 6 -8 13 -7 24 3 38 -1 33 -10 -4 -5 2 -8 11 -7 10 2 23 -2 30 -8 36 -32
42 -35 48 -26 3 6 15 2 27 -10 12 -11 25 -17 30 -14 4 3 8 0 8 -6 0 -6 5 -8
10 -5 6 3 10 2 10 -3 0 -5 8 -12 18 -15 23 -8 76 -40 80 -49 2 -5 10 -8 18 -8
9 0 13 -4 10 -8 -2 -4 4 -9 15 -9 10 -1 26 -9 35 -17 8 -9 20 -16 25 -16 6 0
7 -4 4 -10 -3 -5 0 -7 9 -4 8 3 19 -3 26 -15 6 -11 14 -20 19 -18 5 1 23 -10
40 -26 17 -15 31 -24 31 -20 1 5 9 -2 20 -15 10 -13 23 -24 27 -24 8 -2 59
-47 109 -95 13 -13 28 -23 34 -23 6 0 9 -4 5 -9 -3 -5 4 -12 15 -16 11 -3 20
-10 20 -15 0 -4 16 -24 36 -44 20 -20 33 -36 29 -36 -4 0 3 -9 16 -20 19 -15
20 -19 8 -20 -9 0 -48 -7 -87 -16 -64 -14 -71 -18 -74 -42 -2 -15 -9 -28 -15
-28 -7 -1 -20 -2 -28 -3 -9 -1 -12 -7 -8 -16 4 -13 -4 -12 -48 5 -60 24 -157
26 -201 4 -22 -11 -29 -12 -35 -1 -6 9 -34 13 -93 12 l-85 0 -5 41 c-4 33 -9
40 -23 38 -10 -1 -21 4 -23 11 -4 10 -29 13 -100 12 l-94 -2 3 -47 3 -48 -46
-1 c-25 -1 -84 -2 -132 -3 -75 -1 -88 -3 -88 -17 0 -16 -4 -15 -50 2 -54 20
-157 25 -222 10 l-38 -9 0 49 c0 46 -2 49 -25 49 -14 0 -25 4 -25 8 0 5 -50 8
-112 8 l-111 -1 -12 -35 c-12 -33 -13 -33 -16 -10 -2 14 -11 26 -19 26 -8 1
-21 2 -28 3 -7 0 -11 5 -8 9 3 5 -47 9 -110 9 -83 1 -112 -2 -107 -10 4 -7 0
-7 -9 1 -13 10 -80 12 -310 10 l-293 -3 -3 -22 -3 -22 -52 20 c-44 18 -78 22
-209 24 -150 3 -158 2 -158 -16 0 -23 -12 -24 -53 -2 -30 16 -48 18 -256 22
l-33 1 100 100 c56 56 103 101 106 101 3 0 24 18 47 40 22 21 46 36 53 32 6
-3 8 -3 4 2 -10 11 34 44 51 37 9 -3 12 -1 8 5 -4 7 16 26 48 46 30 19 51 38
47 42 -4 4 0 6 8 3 8 -2 23 4 34 14 11 10 26 18 33 18 7 0 13 5 13 11 0 5 4 8
9 5 5 -3 12 1 15 10 3 8 10 12 16 9 5 -3 10 -1 10 5 0 6 5 8 10 5 6 -3 10 -1
10 4 0 6 5 11 11 11 6 0 25 10 42 22 17 12 27 16 22 7 -4 -7 4 -3 20 11 16 14
24 18 20 10 -5 -8 4 -5 19 8 16 12 32 19 37 16 5 -3 9 0 9 6 0 6 5 8 10 5 6
-3 13 0 16 8 3 8 13 14 21 13 9 -2 34 6 55 16 21 10 43 16 48 13 6 -3 10 -1
10 5 0 6 5 8 10 5 6 -3 10 -1 10 6 0 7 3 9 6 6 4 -3 15 -2 26 4 11 6 32 13 46
15 15 3 29 8 32 12 3 4 14 7 25 6 11 0 27 3 35 7 8 4 26 9 40 10 14 2 30 10
36 18 7 9 13 10 17 4 4 -6 18 -8 32 -6 13 3 23 8 21 12 -2 3 27 6 65 6 38 0
69 4 69 8 0 5 7 7 15 3 8 -3 15 0 16 7 0 9 2 9 6 -1 2 -6 10 -9 16 -5 6 3 44
7 84 8 40 1 76 5 80 8 3 4 14 2 24 -4 12 -6 19 -6 19 0z m-1735 -961 c-2 -79
-7 -176 -10 -217 -5 -52 -3 -71 5 -66 6 4 21 1 33 -7 18 -11 140 -17 189 -9 3
1 6 22 6 49 0 101 0 101 30 100 36 -1 94 12 110 25 10 8 12 -7 10 -74 -3 -78
-2 -84 17 -84 11 1 23 -4 27 -10 9 -13 181 -14 190 0 9 13 31 14 40 1 4 -7
174 -11 479 -11 385 0 472 2 477 13 4 11 7 11 12 2 5 -8 38 -13 89 -14 64 -2
81 1 86 13 5 13 8 13 15 2 11 -19 180 -23 180 -4 0 16 3 16 48 -3 21 -8 61
-15 92 -14 30 1 127 3 215 5 88 1 167 3 175 4 12 1 16 18 17 92 1 68 5 95 17
107 14 14 15 12 11 -29 -2 -24 -5 -69 -7 -99 -3 -55 -3 -55 25 -53 15 1 25 -2
22 -7 -7 -12 -10 -12 95 -14 63 -1 88 2 96 12 9 13 14 13 35 0 30 -18 205 -18
202 0 -2 8 4 9 25 1 55 -21 144 -27 216 -14 37 7 61 37 48 60 -3 5 7 0 23 -13
41 -32 126 -55 180 -48 58 8 75 15 76 32 1 8 2 17 3 22 1 4 5 25 9 47 5 22 10
48 13 58 5 15 2 16 -21 7 -35 -13 -37 -13 -30 9 5 16 2 18 -16 14 -19 -5 -20
-4 -10 16 7 12 17 21 24 20 34 -4 44 2 45 29 0 78 0 77 22 57 11 -10 20 -23
20 -29 0 -6 11 -24 25 -40 13 -16 22 -33 19 -37 -3 -5 0 -9 5 -9 6 0 11 -7 11
-15 0 -9 7 -18 16 -22 8 -3 13 -11 10 -18 -3 -8 1 -15 7 -18 7 -3 26 -32 42
-66 17 -33 34 -61 38 -61 5 0 6 -4 3 -8 -3 -5 4 -25 14 -45 11 -21 17 -37 14
-37 -3 0 2 -7 11 -16 9 -9 14 -22 11 -30 -3 -7 0 -14 5 -16 6 -2 11 -10 13
-18 2 -8 8 -26 13 -40 6 -14 9 -28 6 -32 -2 -5 0 -8 4 -8 5 0 9 -10 10 -22 1
-11 6 -24 10 -27 8 -6 9 -10 17 -54 3 -12 5 -24 6 -27 2 -3 2 -8 1 -12 0 -5 3
-8 8 -8 5 0 8 -8 7 -17 -2 -10 3 -32 10 -49 7 -17 10 -34 7 -37 -3 -4 0 -13 7
-22 7 -8 9 -15 5 -15 -4 0 -2 -7 5 -15 6 -8 9 -19 5 -24 -3 -6 -1 -20 5 -31 8
-15 8 -20 -2 -20 -10 0 -10 -2 -1 -8 7 -4 13 -27 14 -50 2 -24 6 -45 9 -47 5
-3 8 -40 13 -167 1 -25 5 -50 10 -54 4 -4 2 -13 -4 -21 -9 -10 -8 -13 2 -13
10 0 10 -3 1 -12 -7 -7 -8 -17 -2 -29 7 -12 6 -20 0 -24 -8 -5 -8 -11 0 -20 8
-10 8 -15 0 -20 -8 -5 -7 -11 2 -23 7 -9 8 -13 2 -9 -8 4 -12 -13 -13 -56 -2
-85 -3 -91 -10 -102 -3 -5 -6 -31 -6 -57 0 -30 -5 -50 -13 -53 -10 -3 -10 -10
-2 -24 6 -12 6 -22 1 -25 -5 -4 -8 -17 -6 -31 1 -14 -2 -25 -7 -25 -6 0 -8 -6
-5 -14 3 -8 3 -17 -1 -20 -3 -4 -8 -19 -10 -34 -2 -15 -6 -29 -10 -32 -4 -3
-8 -12 -8 -20 -1 -8 -5 -28 -9 -45 -3 -16 -7 -36 -7 -42 -1 -7 -5 -13 -10 -13
-5 0 -7 -4 -3 -9 3 -5 1 -12 -5 -16 -6 -4 -8 -11 -5 -16 4 -5 2 -9 -4 -9 -5 0
-8 -9 -6 -20 3 -13 0 -18 -7 -14 -7 5 -9 1 -5 -9 3 -10 2 -17 -4 -17 -6 0 -8
-4 -4 -9 3 -5 0 -13 -6 -16 -5 -4 -8 -13 -5 -21 3 -7 -2 -20 -10 -29 -9 -8
-13 -15 -9 -15 3 0 0 -10 -7 -22 -7 -13 -11 -26 -10 -30 1 -5 -4 -8 -12 -8 -9
0 -12 -7 -9 -20 3 -12 0 -20 -8 -20 -7 0 -9 -3 -6 -7 4 -3 -1 -15 -10 -26 -13
-15 -14 -19 -3 -13 13 7 13 6 0 -6 -15 -13 -22 -31 -23 -55 0 -7 -2 -11 -5 -8
-4 4 -52 -61 -52 -71 0 -3 -14 -25 -30 -50 -17 -24 -28 -44 -25 -44 5 0 -1 -8
-53 -65 -12 -14 -20 -25 -16 -25 4 0 -3 -9 -16 -20 -13 -11 -19 -20 -14 -20 5
0 1 -5 -9 -11 -9 -6 -15 -14 -12 -20 4 -5 -1 -9 -9 -9 -9 0 -16 -5 -16 -11 0
-6 -20 -30 -44 -55 -25 -24 -42 -44 -39 -44 2 0 -40 -44 -93 -97 -54 -54 -99
-97 -101 -95 -2 1 -11 -6 -22 -15 -40 -39 -81 -71 -81 -65 -1 4 -9 -3 -19 -15
-10 -12 -21 -19 -25 -16 -3 4 -6 0 -6 -7 0 -7 -3 -11 -6 -7 -9 9 -33 -16 -26
-28 3 -5 2 -7 -3 -3 -4 4 -27 -6 -50 -22 -23 -16 -45 -26 -49 -23 -3 4 -6 1
-6 -5 0 -7 -5 -12 -11 -12 -7 0 -18 -8 -26 -18 -10 -11 -12 -12 -8 -2 4 10 2
9 -8 -2 -8 -10 -17 -15 -20 -11 -4 3 -7 1 -7 -6 0 -7 -4 -9 -10 -6 -5 3 -10 1
-10 -5 0 -6 -4 -9 -9 -6 -5 4 -11 3 -13 -1 -1 -5 -36 -25 -76 -45 -40 -20 -69
-32 -66 -26 4 7 -9 -1 -29 -16 -25 -19 -37 -24 -37 -15 -1 9 -4 8 -11 -4 -6
-9 -14 -15 -20 -12 -5 4 -9 2 -9 -2 0 -5 -8 -9 -17 -10 -35 -3 -57 -10 -60
-20 -2 -6 -13 -9 -23 -6 -12 3 -20 0 -20 -6 0 -7 -4 -10 -9 -6 -5 3 -13 1 -16
-5 -5 -8 -11 -7 -21 1 -12 10 -15 10 -12 -2 2 -10 -6 -13 -30 -12 -18 1 -30
-2 -27 -8 6 -8 -22 -14 -52 -10 -7 1 -13 -3 -13 -9 0 -5 -5 -10 -11 -10 -5 0
-7 6 -3 13 4 6 -1 5 -12 -4 -18 -15 -35 -19 -96 -22 -16 -1 -28 -5 -28 -9 0
-4 -12 -5 -26 -2 -14 3 -23 1 -20 -4 3 -5 -15 -8 -39 -6 -25 1 -43 -1 -40 -5
2 -4 -2 -8 -10 -8 -8 0 -15 4 -15 8 0 5 -8 6 -17 2 -10 -3 -15 -3 -11 2 4 4 3
14 -3 21 -8 9 -5 16 11 24 20 11 21 10 10 -12 -11 -20 -10 -21 1 -8 8 8 21 20
29 26 13 11 13 12 0 11 -8 -1 -15 2 -15 8 0 5 3 9 8 8 12 -5 8 15 -5 20 -8 3
-6 6 5 6 9 1 17 -4 17 -11 0 -6 3 -8 6 -5 4 4 1 14 -7 24 -12 14 -12 16 0 8
11 -6 13 -4 8 8 -3 9 -3 16 1 16 19 -3 25 2 12 11 -12 8 -11 10 8 10 12 0 22
5 22 11 0 5 -4 8 -9 4 -5 -3 -13 0 -17 6 -4 8 -3 9 4 5 7 -4 12 -2 12 4 0 6 5
8 10 5 6 -3 10 -2 10 4 0 5 -6 12 -12 14 -7 3 -3 6 9 6 12 1 25 6 29 13 4 7 3
8 -4 4 -7 -4 -12 -3 -12 3 0 5 4 11 10 13 5 1 11 15 12 30 2 26 3 27 22 10 19
-17 19 -17 0 13 -10 16 -14 26 -8 22 14 -8 27 20 17 36 -5 9 -3 9 8 1 11 -8
20 -4 38 14 13 14 17 23 8 19 -10 -4 -17 1 -20 14 -5 17 -3 18 11 7 13 -11 15
-11 9 4 -3 10 -2 20 4 23 5 4 6 11 3 17 -4 6 -2 8 4 5 5 -4 9 -18 8 -32 -2
-13 0 -22 5 -20 4 3 6 23 4 45 -2 23 1 38 6 34 5 -3 6 -10 3 -16 -4 -7 -2 -8
4 -4 6 4 8 14 5 24 -6 15 -4 15 9 4 14 -12 16 -10 11 10 -4 13 -11 26 -17 31
-6 4 0 6 14 5 21 -3 25 1 25 24 -1 16 3 24 10 20 16 -10 36 -11 29 -1 -3 5 -9
7 -14 4 -10 -6 -6 53 5 63 5 4 5 2 2 -4 -4 -7 -1 -14 6 -17 10 -4 13 5 11 32
-1 20 0 30 3 24 9 -23 25 -14 18 10 -7 22 -7 22 9 2 16 -19 16 -19 7 5 -10 30
-4 51 13 44 7 -3 13 2 13 11 0 8 -5 15 -11 15 -6 0 -3 5 8 11 15 9 16 13 5 21
-11 8 -10 9 3 5 9 -3 19 1 22 9 3 9 10 13 15 10 5 -3 14 1 20 8 9 10 9 16 1
21 -8 5 -8 11 1 21 6 7 9 20 6 27 -3 8 1 14 8 14 7 0 11 -7 8 -16 -2 -9 3 -3
12 12 9 16 21 25 27 21 7 -4 8 -3 4 4 -5 9 -13 9 -29 1 -12 -6 -4 6 19 28 22
21 33 32 23 25 -13 -10 -19 -11 -25 -1 -4 7 -3 10 3 6 5 -4 16 5 24 19 7 14
21 30 31 35 10 6 16 14 13 20 -4 5 1 12 10 15 10 4 13 13 9 27 -5 16 -3 19 11
13 14 -5 16 -4 6 7 -8 11 -6 18 11 33 15 13 19 14 10 3 -10 -14 -10 -18 3 -23
11 -4 14 -2 9 6 -4 6 -3 8 4 4 5 -3 13 0 16 6 3 7 3 2 0 -12 -5 -20 -4 -23 7
-13 18 18 34 16 19 -2 -10 -12 -8 -14 9 -10 23 4 29 -10 9 -19 -7 -3 -2 -3 11
0 17 5 21 3 16 -6 -5 -9 -4 -11 4 -6 6 4 15 -2 21 -16 9 -21 10 -20 5 7 -5 27
-4 28 8 13 8 -10 18 -14 23 -10 4 4 2 -2 -6 -13 -8 -11 -10 -17 -6 -13 5 4 17
-2 27 -14 11 -11 19 -16 19 -10 0 6 -4 14 -10 17 -5 3 -10 12 -9 18 0 9 2 8 6
-1 2 -6 8 -10 12 -8 4 3 8 -1 9 -9 1 -8 3 -21 4 -29 1 -8 4 -15 7 -14 27 3 61
-4 57 -11 -3 -5 1 -11 9 -14 8 -4 13 -1 11 6 -1 7 -1 9 1 5 3 -5 11 -8 19 -8
8 0 14 -4 14 -10 0 -5 -5 -9 -11 -7 -6 1 -14 -5 -16 -13 -4 -12 -3 -12 5 -1 7
9 12 10 16 2 4 -6 11 -9 16 -6 4 3 13 -2 21 -11 7 -8 22 -20 33 -25 12 -6 6 1
-11 16 -18 15 -33 32 -33 38 0 7 5 5 10 -4 5 -9 23 -22 39 -29 21 -8 28 -17
24 -28 -4 -13 -3 -14 5 -3 7 10 11 11 17 1 6 -10 11 -9 20 4 11 15 13 15 19 1
4 -11 2 -14 -6 -9 -7 4 -8 3 -4 -5 4 -6 12 -9 17 -6 5 4 9 1 9 -6 0 -7 3 -10
6 -7 3 4 1 17 -6 30 -10 20 -10 21 3 6 8 -10 18 -14 22 -10 5 4 5 1 1 -5 -10
-18 4 -16 24 2 14 13 17 13 17 1 0 -8 -5 -14 -10 -13 -5 1 -12 -4 -14 -11 -4
-11 -1 -12 15 -3 10 6 22 7 26 3 4 -3 4 2 0 12 -5 13 -4 17 4 12 6 -3 14 -1
18 5 4 8 3 9 -4 5 -8 -5 -11 -1 -9 11 6 31 19 53 29 53 7 0 6 -5 -1 -13 -6 -8
-7 -18 -3 -22 4 -5 1 -5 -7 0 -10 5 -12 4 -7 -4 4 -6 12 -9 17 -5 5 3 7 10 4
15 -4 5 1 12 10 16 16 5 16 7 1 15 -9 5 -16 14 -16 21 0 7 4 6 11 -3 8 -12 9
-12 7 5 -4 28 9 45 35 46 12 0 16 3 10 6 -17 6 -16 25 3 49 14 18 15 18 4 -4
-7 -13 -9 -26 -6 -30 3 -3 6 0 6 7 0 7 4 10 8 7 4 -2 9 6 10 20 1 13 -3 24
-10 24 -6 0 -8 3 -5 6 4 4 13 2 20 -4 10 -9 14 -8 14 3 0 8 -4 15 -9 15 -5 0
-6 5 -3 10 5 8 12 7 23 -2 8 -7 4 4 -9 24 -13 21 -28 38 -33 38 -5 0 -1 -9 9
-20 10 -11 15 -23 12 -27 -4 -3 -7 -1 -7 6 0 7 -5 9 -12 5 -6 -4 -8 -3 -4 4 3
6 2 13 -4 17 -6 4 -8 11 -5 16 4 5 1 9 -5 9 -6 0 -8 5 -5 10 3 6 -1 10 -9 10
-9 0 -16 5 -16 10 0 6 -10 10 -22 10 -21 0 -21 0 -2 23 10 12 12 16 4 10 -17
-16 -34 -17 -25 -2 4 6 1 10 -6 8 -30 -4 -41 2 -35 16 3 8 2 14 -2 13 -13 -4
-52 13 -52 23 0 5 -5 9 -11 9 -5 0 -7 -5 -3 -12 5 -7 3 -8 -6 -3 -10 6 -9 11
6 23 18 14 18 14 -1 7 -11 -4 -25 -9 -31 -11 -6 -3 -11 2 -11 10 0 8 3 13 7
11 3 -2 12 1 20 7 13 8 12 9 -2 5 -18 -6 -43 17 -34 31 3 5 -1 9 -9 9 -13 0
-13 -3 0 -23 9 -14 11 -25 5 -29 -6 -3 -10 -1 -10 5 0 6 -4 8 -10 5 -5 -3 -7
0 -4 9 4 11 0 14 -19 10 -16 -2 -27 1 -31 11 -3 8 -12 15 -21 15 -8 0 -15 5
-15 11 0 11 15 4 43 -19 9 -8 17 -11 17 -6 0 15 -52 41 -77 39 -25 -2 -29 5
-12 22 8 8 7 13 -2 18 -7 5 -10 4 -6 -2 4 -6 -2 -13 -13 -16 -11 -3 -18 -2
-15 2 4 7 -39 33 -57 35 -3 1 -10 4 -14 8 -3 4 3 6 15 3 14 -2 21 1 21 11 0 8
-5 12 -11 9 -6 -4 -5 2 2 13 7 12 17 18 22 15 5 -3 3 -9 -4 -14 -8 -5 -9 -9
-3 -9 18 0 24 12 13 31 -7 15 -6 17 6 13 8 -4 15 -12 15 -20 0 -8 6 -11 17 -7
12 5 14 3 8 -8 -8 -12 -6 -12 8 0 9 7 14 18 10 25 -3 6 -2 7 3 3 5 -5 9 -14 9
-20 1 -7 6 -11 11 -10 6 1 11 -5 11 -12 0 -11 -4 -12 -13 -4 -8 7 -14 6 -20
-2 -4 -7 -3 -9 4 -5 6 3 13 2 17 -3 3 -6 13 -7 22 -4 12 5 14 3 8 -8 -8 -12
-6 -12 8 0 12 9 17 10 17 2 0 -7 4 -10 9 -6 11 6 26 -13 17 -22 -3 -3 -12 0
-20 6 -11 9 -16 9 -22 0 -4 -7 -3 -9 4 -5 5 3 12 2 14 -4 1 -5 14 -11 28 -14
14 -2 27 -5 30 -5 3 -1 -2 -6 -10 -11 -8 -5 -10 -10 -4 -10 6 0 18 8 25 17 8
10 9 14 2 10 -6 -4 -14 -3 -18 3 -4 6 -11 8 -16 5 -15 -10 -10 1 7 15 12 11
15 11 12 -1 -2 -9 5 -14 20 -13 16 1 20 -2 13 -10 -7 -8 -4 -17 9 -29 22 -19
34 -22 25 -8 -3 5 0 13 7 17 7 4 10 4 6 -1 -4 -4 -2 -15 5 -23 8 -11 8 -14 0
-9 -6 4 -14 3 -17 -2 -7 -11 13 -9 32 2 7 5 9 13 6 19 -4 7 -2 8 5 4 9 -6 9
-11 -1 -24 -11 -14 -10 -15 7 -9 l20 7 -20 -16 -20 -16 20 4 c12 2 19 -2 17
-10 -1 -8 2 -11 8 -7 5 3 10 0 10 -7 0 -10 3 -9 9 2 11 16 4 33 -10 25 -5 -4
-9 -1 -9 4 0 31 38 -2 43 -37 2 -12 5 -23 8 -24 2 -2 3 -1 2 1 -2 2 2 10 8 17
9 11 16 11 39 -1 19 -10 31 -11 35 -5 8 13 25 3 25 -13 0 -8 -3 -8 -9 1 -6 10
-10 10 -21 -3 -11 -13 -10 -14 5 -9 14 6 16 4 10 -7 -6 -11 -5 -12 6 -1 15 14
33 16 25 3 -4 -5 5 -8 20 -6 14 1 32 -4 40 -12 8 -8 14 -11 14 -6 0 5 -5 14
-12 21 -9 9 -8 12 4 12 8 0 22 8 29 17 8 9 9 14 3 10 -12 -7 -29 21 -19 31 3
3 5 1 5 -5 0 -5 6 -10 14 -10 11 0 12 6 6 23 -9 23 -4 34 14 34 6 0 4 -5 -4
-10 -8 -5 -11 -10 -7 -10 5 0 21 10 35 21 26 21 26 21 4 14 -23 -7 -23 -7 -7
19 16 24 34 39 20 17 -3 -5 -1 -12 4 -15 11 -7 9 13 -3 33 -7 11 -5 13 7 8 10
-3 17 -2 17 4 0 6 5 7 12 3 6 -4 8 -3 4 4 -3 6 1 18 10 26 8 9 12 16 7 16 -4
0 -14 9 -21 21 -8 12 -9 18 -3 14 6 -3 11 -2 11 3 0 6 10 8 23 5 17 -4 16 -2
-7 11 -22 12 -32 13 -42 5 -10 -8 -14 -8 -14 0 0 6 5 11 10 11 6 0 10 9 10 21
0 11 -4 18 -8 15 -5 -3 -14 3 -22 14 -7 10 -20 16 -29 13 -12 -3 -11 0 3 11
22 18 14 21 -14 6 -16 -8 -18 -7 -15 9 3 14 -1 18 -16 14 -23 -6 -50 14 -47
35 2 8 -3 17 -9 19 -7 3 -13 0 -13 -7 0 -6 5 -8 12 -4 7 4 8 3 4 -4 -10 -16
-26 -15 -26 1 0 6 -12 21 -27 31 -14 11 -23 14 -19 8 5 -8 2 -10 -8 -6 -9 3
-14 10 -11 14 3 4 -2 11 -11 14 -8 3 -13 10 -9 15 3 5 0 13 -6 17 -8 4 -9 3
-5 -4 12 -20 -6 -13 -31 10 -15 14 -22 17 -18 7 3 -8 19 -23 35 -33 17 -9 30
-23 29 -29 0 -9 -2 -9 -6 1 -2 6 -11 12 -19 12 -8 0 -14 5 -14 11 0 6 -7 9
-15 5 -8 -3 -14 0 -12 7 1 7 -4 11 -11 9 -8 -1 -11 2 -6 9 5 9 2 10 -12 6 -18
-7 -18 -6 -1 7 16 12 16 14 2 20 -9 3 -14 2 -11 -3 3 -5 0 -11 -8 -14 -9 -4
-12 2 -10 19 1 13 -2 22 -6 19 -5 -3 -11 -1 -15 4 -3 6 -12 8 -20 5 -8 -4 -12
-10 -9 -15 3 -5 3 -9 -1 -9 -6 0 -45 62 -45 73 0 4 5 7 11 7 5 0 8 -4 4 -9 -3
-5 -1 -12 4 -16 11 -6 7 27 -5 47 -4 6 -3 8 3 5 6 -4 14 0 17 9 5 12 2 15 -10
10 -13 -5 -14 -4 -6 7 7 8 8 18 4 23 -4 4 0 3 10 -4 12 -10 18 -10 24 -1 4 7
3 9 -3 6 -6 -4 -14 0 -17 9 -3 8 -2 13 3 9 13 -7 42 5 35 16 -3 5 0 9 6 9 6 0
9 4 5 9 -3 5 -1 12 4 16 5 3 10 13 9 23 0 23 12 75 19 82 3 3 3 -5 0 -17 -3
-16 -1 -23 10 -23 8 0 12 4 8 9 -3 6 3 15 12 21 12 8 13 10 3 7 -10 -3 -16 2
-16 14 0 14 3 15 14 7 10 -9 12 -6 8 14 -3 17 0 25 10 25 9 0 11 -4 4 -12 -7
-9 -5 -17 7 -26 16 -13 17 -12 5 3 -9 11 -10 18 -2 23 8 5 7 11 -2 23 -11 13
-11 14 1 8 10 -7 12 -3 6 15 -5 20 -4 21 5 9 10 -12 11 -11 7 7 -4 16 -1 20
11 16 11 -5 13 -3 7 7 -6 10 -4 12 8 7 9 -3 19 -2 22 4 4 5 1 8 -6 7 -6 -2
-14 3 -17 11 -2 8 0 11 6 8 5 -4 12 3 15 14 4 14 11 20 21 16 13 -5 13 -2 5
20 -9 24 -8 25 7 12 16 -13 16 -12 6 8 -17 31 -15 40 3 17 14 -18 15 -17 5 8
-7 21 -6 26 4 22 8 -3 17 0 22 7 5 8 3 10 -7 4 -8 -5 -11 -5 -7 0 4 4 3 13 -2
20 -7 8 -5 12 5 12 8 0 12 -4 10 -8 -3 -4 1 -9 8 -12 9 -3 12 5 12 28 -1 30 1
33 24 29 14 -3 21 -1 15 3 -7 5 -12 20 -12 35 0 21 3 24 13 15 7 -7 10 -16 7
-22 -3 -5 -1 -6 3 -2 12 10 15 37 5 37 -5 0 -8 9 -7 19 0 11 5 17 9 15 5 -3 6
-9 4 -13 -3 -4 1 -8 9 -8 8 0 12 4 9 8 -2 4 0 10 5 13 5 4 8 17 6 31 -1 14 0
23 3 20 10 -10 41 27 35 43 -5 11 -3 13 8 7 12 -8 12 -6 0 8 -12 16 -12 17 5
10 17 -6 18 -5 4 12 -8 10 -10 16 -5 13 14 -8 36 5 38 23 2 8 7 21 12 29 7 13
6 13 -7 2 -13 -11 -15 -9 -15 13 0 15 4 22 11 18 6 -3 8 -2 3 2 -4 5 -16 9
-27 10 -18 2 -19 0 -4 -16 10 -11 12 -19 4 -24 -6 -3 -9 -1 -8 6 2 6 -3 14
-11 17 -9 3 -11 0 -6 -8 5 -9 4 -11 -3 -6 -9 5 -9 13 -2 26 14 26 12 40 -4 34
-8 -3 -16 -1 -19 3 -3 5 -19 8 -36 7 -17 -1 -35 4 -42 12 -9 11 -8 14 5 14 14
0 15 2 4 14 -7 8 -14 11 -15 8 -5 -12 -183 -1 -183 11 0 6 -7 2 -16 -9 -15
-18 -15 -18 -10 0 5 14 3 16 -6 9 -16 -13 -228 -16 -247 -4 -9 6 -21 5 -32 -2
-13 -8 -24 -8 -43 1 -14 6 -28 7 -31 2 -8 -13 -295 -12 -295 2 0 7 -6 4 -12
-4 -11 -15 -18 -15 -50 -4 -26 9 -40 10 -48 2 -7 -7 -19 -7 -39 1 -21 8 -32 8
-40 0 -8 -8 -19 -8 -40 0 -20 7 -33 7 -39 1 -6 -6 -22 -7 -39 -3 -45 13 -53
14 -48 5 3 -5 -59 -9 -137 -9 -130 0 -145 2 -164 20 -17 16 -24 18 -30 7 -4
-7 -4 -10 1 -6 4 4 14 3 22 -3 16 -14 17 -33 1 -23 -7 4 -21 8 -32 9 -12 1
-25 3 -31 5 -5 2 -18 0 -28 -5 -10 -4 -29 -3 -42 3 -14 6 -27 7 -30 2 -3 -4
-73 -9 -155 -9 -83 0 -149 3 -146 8 3 4 -2 8 -10 8 -8 0 -13 -6 -10 -13 4 -9
-3 -10 -26 -3 -17 4 -33 11 -36 14 -3 2 -11 0 -18 -6 -9 -7 -25 -8 -41 -4 -46
13 -53 14 -48 5 9 -14 -279 -10 -287 4 -5 7 -8 6 -8 -4 0 -12 -8 -15 -35 -12
-22 3 -33 8 -29 16 3 6 -2 2 -10 -8 -16 -20 -16 -20 -17 0 -1 15 -2 16 -6 2
-3 -11 -12 -15 -29 -12 -22 4 -24 2 -18 -23 4 -16 11 -29 16 -31 4 -2 8 -12 8
-23 0 -10 5 -19 11 -19 5 0 7 -4 4 -10 -3 -5 0 -10 7 -10 9 0 9 -3 -2 -10 -13
-9 -13 -10 0 -10 21 0 42 -37 36 -63 -3 -12 -3 -16 0 -9 3 6 10 12 15 12 6 0
7 -4 4 -10 -3 -5 -1 -10 6 -10 8 0 8 -4 -1 -15 -11 -13 -10 -14 4 -9 10 4 16
1 16 -9 0 -8 7 -20 15 -27 12 -10 13 -16 4 -27 -10 -11 -9 -12 5 -7 12 4 16 0
16 -16 0 -13 -4 -19 -12 -14 -7 4 -8 3 -4 -5 6 -8 12 -9 20 -2 17 14 29 2 15
-15 -7 -8 -6 -14 2 -20 8 -5 9 -3 4 6 -5 9 -4 11 4 6 9 -6 9 -11 1 -21 -8 -10
-8 -15 1 -21 8 -4 9 -3 5 4 -14 23 9 11 28 -14 l18 -26 -23 12 -24 11 23 -20
c12 -10 22 -26 22 -35 0 -8 4 -18 10 -21 6 -4 7 1 4 12 -5 15 -4 15 4 3 7 -9
8 -18 1 -26 -7 -8 -6 -15 2 -20 8 -4 9 -3 5 4 -4 7 -3 12 2 12 5 0 15 -13 22
-30 7 -16 16 -30 20 -30 9 0 8 -20 -3 -37 -5 -7 0 -10 15 -6 19 4 20 3 8 -6
-13 -9 -12 -11 3 -11 10 0 15 -4 12 -10 -3 -5 -1 -10 4 -10 6 0 11 -5 11 -11
0 -5 -4 -8 -8 -5 -5 3 -9 -2 -9 -10 0 -10 4 -11 11 -4 13 13 36 13 36 -1 0 -5
-6 -7 -12 -3 -10 5 -10 4 -1 -6 10 -11 10 -17 1 -29 -7 -9 1 -5 16 9 20 17 27
20 23 8 -3 -9 1 -24 9 -35 14 -17 15 -17 5 3 -9 18 -7 23 8 27 10 2 18 -1 18
-9 0 -7 -5 -10 -10 -7 -6 3 -7 1 -3 -5 4 -7 15 -8 30 -2 20 7 23 6 20 -16 -1
-13 2 -22 7 -18 5 3 7 10 4 15 -4 5 -1 9 4 9 6 0 11 -8 11 -17 0 -15 2 -16 10
-3 8 13 10 12 10 -3 0 -12 4 -16 13 -10 19 12 47 14 47 4 0 -6 -8 -8 -18 -6
-11 2 -19 -3 -19 -11 0 -10 4 -11 14 -3 7 6 13 8 13 3 0 -5 7 0 15 10 8 11 15
14 15 8 0 -19 30 -14 31 6 1 16 2 16 6 -1 3 -10 9 -14 16 -10 7 4 15 8 20 9 4
1 9 3 12 4 12 6 31 6 40 0 9 -6 51 -6 58 0 9 8 57 5 57 -4 0 -6 11 -11 24 -11
18 0 22 4 16 15 -4 8 -5 21 -2 29 3 9 0 11 -8 6 -9 -5 -11 -4 -6 3 4 7 14 12
22 12 12 0 12 3 2 20 -7 11 -17 20 -22 20 -4 0 -3 -7 4 -15 7 -9 8 -15 2 -15
-17 0 -22 29 -7 44 24 23 17 28 -12 9 l-28 -17 20 24 c11 13 15 20 9 17 -7 -4
-15 0 -18 9 -3 8 -11 12 -17 8 -8 -4 -9 -3 -5 4 4 7 2 12 -5 12 -6 0 -1 8 11
18 18 14 19 19 7 19 -9 0 -14 -4 -11 -9 3 -4 0 -8 -5 -8 -6 0 -11 7 -11 15 0
8 5 15 11 15 5 0 7 5 4 11 -5 6 -12 4 -21 -8 -11 -15 -14 -15 -15 -3 -1 8 -1
18 0 23 0 4 -3 7 -9 7 -14 0 -6 43 8 48 7 2 9 9 6 14 -4 7 -2 8 4 4 9 -5 7
-15 -6 -34 -12 -18 -13 -24 -3 -18 10 6 12 5 7 -2 -4 -7 -2 -12 4 -12 7 0 9 8
5 20 -5 15 -2 20 10 20 11 0 15 5 12 15 -4 8 -2 17 4 20 5 4 8 1 7 -6 -2 -7 4
-13 12 -14 9 0 14 -9 13 -20 -1 -19 -1 -19 11 -3 7 10 17 14 21 10 5 -4 5 -1
1 6 -4 7 -11 10 -15 8 -4 -3 -8 1 -8 9 0 12 3 12 14 3 11 -9 19 -9 33 0 14 9
21 9 26 0 4 -6 3 -8 -3 -5 -6 4 -17 -1 -24 -10 -12 -15 -12 -16 4 -10 11 4 31
10 45 13 15 4 32 11 39 16 7 6 14 4 19 -3 4 -7 3 -9 -3 -6 -6 4 -16 0 -23 -8
-15 -18 -12 -18 28 -4 18 6 29 16 25 22 -4 6 -1 7 6 2 9 -5 10 -10 2 -18 -6
-6 -11 -15 -11 -20 0 -5 7 -1 16 7 19 20 35 21 28 2 -3 -8 -1 -17 5 -21 7 -3
8 0 5 9 -3 9 -1 16 6 16 6 0 9 4 6 9 -4 5 3 7 14 4 11 -3 26 0 34 6 11 9 16 9
22 0 4 -7 3 -9 -3 -6 -6 4 -17 -1 -24 -10 -12 -14 -12 -16 1 -11 51 18 60 19
54 5 -3 -8 -1 -18 5 -22 6 -3 9 0 5 8 -3 8 0 18 7 23 7 4 10 3 6 -3 -5 -8 19
-10 71 -4 7 0 10 7 7 14 -4 6 0 4 8 -5 16 -20 29 -14 19 10 -4 12 1 10 18 -5
18 -17 27 -20 41 -12 11 5 20 7 20 4 1 -3 2 -9 3 -14 0 -5 4 -13 8 -16 4 -4 5
5 2 21 -4 28 -3 28 11 10 15 -19 15 -19 16 5 0 22 1 22 8 4 5 -11 6 -24 3 -30
-3 -5 2 -3 13 5 10 8 20 14 22 13 10 -8 23 -1 17 10 -6 10 -4 10 7 0 7 -7 17
-13 22 -13 4 0 5 6 2 13 -4 6 0 4 8 -5 16 -20 29 -14 19 10 -4 12 1 10 18 -5
18 -17 27 -20 42 -12 15 8 20 5 28 -13 9 -21 10 -20 5 7 -5 28 -4 29 10 11 15
-19 15 -19 16 5 0 22 1 22 8 4 5 -11 6 -24 3 -30 -3 -5 2 -3 13 5 10 8 20 14
22 13 9 -7 23 -2 18 7 -11 18 4 11 25 -12 15 -16 23 -19 31 -11 6 6 18 9 27 6
10 -4 13 -2 8 5 -3 6 -1 14 5 18 8 4 9 3 5 -4 -5 -8 2 -10 21 -6 22 4 31 0 41
-16 8 -12 9 -19 3 -15 -6 3 -11 2 -11 -4 0 -6 -8 -8 -17 -4 -15 5 -14 3 2 -10
12 -10 15 -16 7 -17 -7 0 -10 -5 -7 -10 3 -6 -4 -14 -17 -19 -13 -6 -17 -10
-8 -11 9 0 6 -6 -10 -15 -15 -9 -19 -14 -10 -15 12 0 12 -2 2 -9 -8 -4 -13
-11 -13 -15 3 -20 0 -26 -9 -21 -5 3 -10 -3 -10 -15 0 -12 -4 -18 -10 -15 -6
3 -7 -1 -4 -9 3 -9 1 -16 -6 -16 -6 0 -9 -4 -5 -9 3 -5 1 -12 -5 -16 -6 -4 -8
-11 -5 -16 3 -5 -2 -6 -11 -2 -11 4 -15 3 -10 -5 3 -6 2 -13 -4 -17 -6 -4 -8
-10 -5 -14 2 -5 -4 -16 -15 -26 -10 -9 -16 -23 -13 -31 3 -8 0 -14 -7 -14 -6
0 -8 5 -4 12 4 6 3 8 -4 4 -6 -3 -9 -16 -7 -27 3 -15 0 -19 -11 -15 -8 3 -12
2 -9 -3 3 -6 -3 -15 -12 -21 -15 -9 -15 -10 5 -4 24 6 24 6 5 -14 -33 -37 -43
-51 -43 -62 0 -21 -32 -60 -44 -53 -6 4 -6 0 2 -9 10 -13 10 -17 -3 -22 -8 -3
-15 -12 -15 -21 0 -8 -5 -15 -11 -15 -6 0 -9 -6 -6 -13 5 -13 -17 -39 -26 -31
-3 3 -4 -1 -4 -8 1 -7 -2 -14 -8 -15 -5 -2 -10 1 -10 6 0 5 -3 12 -7 15 -5 3
-6 3 -3 -1 3 -3 -1 -13 -8 -21 -8 -11 -8 -14 0 -9 24 15 23 -14 -3 -65 -15
-29 -37 -61 -48 -71 -12 -10 -16 -16 -10 -13 6 3 11 -1 11 -9 0 -8 -3 -13 -6
-11 -3 1 -14 -5 -23 -16 -10 -10 -13 -18 -7 -18 5 0 7 -5 4 -10 -4 -7 -13 -6
-26 1 -12 6 -23 8 -26 6 -2 -3 5 -8 16 -12 12 -3 21 -11 21 -17 0 -5 -7 -7
-16 -4 -14 5 -15 4 -4 -9 13 -15 3 -21 -25 -15 -5 1 -4 -4 3 -12 10 -10 8 -16
-10 -31 -13 -10 -17 -16 -10 -12 6 3 12 1 12 -6 0 -7 -9 -9 -22 -6 -22 6 -22
6 -4 -8 11 -8 14 -15 8 -15 -7 0 -12 -6 -12 -13 0 -8 -9 -24 -20 -37 -19 -22
-24 -35 -21 -54 1 -5 -4 -6 -11 -4 -8 4 -14 -3 -14 -18 -2 -29 -24 -52 -44
-47 -13 4 -13 3 -1 -5 12 -9 12 -13 2 -26 -8 -9 -10 -16 -5 -16 5 0 1 -5 -8
-11 -10 -5 -15 -16 -11 -25 3 -9 0 -14 -8 -12 -8 2 -13 -3 -11 -9 1 -7 -3 -13
-9 -13 -5 0 -7 -4 -4 -10 9 -14 -8 -12 -25 3 -8 6 -6 2 4 -10 17 -20 17 -23 3
-23 -10 0 -14 -6 -11 -14 3 -7 -2 -20 -10 -29 -8 -8 -12 -18 -8 -22 4 -5 0 -6
-9 -3 -9 4 -16 1 -16 -8 0 -7 4 -11 9 -8 4 3 5 -2 2 -10 -3 -8 -12 -12 -19
-10 -10 4 -13 -2 -10 -21 2 -22 -1 -26 -16 -22 -11 3 -22 0 -26 -5 -3 -6 -1
-8 5 -4 6 3 13 2 17 -4 3 -6 0 -13 -9 -16 -8 -3 -12 -12 -10 -19 3 -7 0 -16
-7 -21 -8 -5 -10 -3 -4 6 5 9 4 11 -4 6 -6 -4 -9 -11 -6 -16 3 -5 -1 -20 -10
-33 -8 -13 -14 -26 -13 -28 2 -2 -3 3 -11 11 -11 13 -12 12 -6 -9 5 -16 4 -21
-4 -17 -7 5 -8 1 -4 -10 5 -14 3 -16 -13 -10 -15 6 -17 5 -6 -5 6 -7 12 -17
12 -22 0 -5 -7 -2 -15 7 -8 8 -15 21 -15 28 0 10 -3 9 -10 -2 -5 -8 -10 -10
-10 -4 0 5 5 15 11 21 8 8 5 13 -10 18 -14 4 -21 15 -21 31 0 24 -14 32 -25
14 -3 -5 -1 -10 6 -10 7 0 10 -3 6 -6 -3 -3 -11 -3 -17 1 -8 5 -4 15 12 32
l23 26 -27 -17 c-27 -17 -27 -17 -23 3 2 12 7 26 11 33 4 6 3 8 -2 5 -13 -8
-39 9 -39 25 -1 7 -6 12 -12 11 -12 -3 -11 13 2 52 6 18 5 18 -5 3 -6 -10 -16
-18 -23 -18 -8 0 -8 3 2 9 9 6 10 14 3 27 -10 19 -12 26 -12 45 0 5 -5 7 -11
3 -8 -4 -7 -9 2 -15 8 -5 10 -9 6 -9 -4 0 -2 -10 4 -22 11 -21 11 -22 -4 -9
-10 7 -17 20 -17 27 0 8 -6 14 -12 15 -10 0 -10 2 -1 6 7 2 13 9 13 14 0 6 -4
8 -9 5 -12 -8 -21 18 -16 44 5 27 -4 26 -14 -2 l-8 -22 -5 22 c-4 12 -2 20 3
16 5 -3 9 0 9 5 0 10 -13 15 -32 12 -3 0 -5 7 -3 17 2 9 4 21 4 25 1 5 6 5 13
1 7 -4 8 -3 4 5 -6 9 -11 9 -22 0 -8 -6 -15 -9 -15 -5 -1 3 -2 12 -3 19 -1 6
-8 11 -15 9 -10 -2 -10 4 3 23 17 26 17 26 -4 15 -15 -8 -20 -8 -16 -1 4 6 2
11 -4 11 -6 0 -8 5 -4 11 4 8 9 7 16 -2 8 -11 9 -11 5 1 -2 8 -14 14 -26 13
-11 -2 -21 2 -21 8 0 5 5 7 10 4 15 -9 12 4 -4 20 -7 8 -17 11 -21 7 -5 -4 -5
-1 -1 6 6 10 11 10 22 1 12 -10 17 -9 27 1 9 10 9 11 -1 6 -7 -4 -19 -2 -27 4
-8 6 -18 9 -23 6 -6 -3 -9 9 -7 29 1 21 -2 32 -8 28 -7 -4 -8 1 -3 12 5 15 4
16 -8 6 -12 -10 -16 -9 -24 6 -11 22 -4 46 10 37 7 -4 8 -2 4 5 -6 9 -12 9
-24 -1 -10 -7 -14 -9 -10 -4 11 13 -11 48 -24 40 -7 -4 -8 -3 -4 5 4 6 11 9
16 6 5 -3 11 -1 14 4 4 5 -5 8 -18 7 -21 -3 -24 1 -22 26 1 15 -1 34 -6 41 -6
9 -8 9 -8 0 0 -7 -5 -13 -11 -13 -6 0 -8 8 -4 19 4 13 0 23 -12 30 -16 9 -16
13 -4 33 l14 23 -22 -19 c-17 -16 -24 -17 -34 -7 -9 10 -8 11 6 5 13 -5 16 -2
10 12 -4 12 -3 15 5 10 7 -4 12 -2 12 3 0 13 -6 14 -29 2 -15 -9 -17 -6 -13
22 2 22 0 28 -6 19 -7 -11 -10 -11 -15 3 -4 9 -3 13 3 10 6 -3 10 -3 10 1 0
10 -41 44 -54 44 -6 0 -5 4 3 9 15 10 25 41 13 40 -22 -3 -32 3 -32 21 0 11
-5 20 -11 20 -5 0 -7 -4 -4 -10 10 -16 -1 -11 -16 7 -8 9 -9 14 -4 11 6 -3 16
1 23 8 11 12 10 14 -11 10 -15 -2 -24 1 -24 9 0 7 9 11 21 8 13 -2 9 2 -9 11
-16 8 -26 15 -21 15 6 1 1 7 -10 15 -10 8 -19 20 -19 28 -1 7 -6 12 -12 11 -6
-1 -9 10 -7 27 2 17 -1 30 -6 30 -6 0 -10 9 -10 20 0 11 -4 20 -9 20 -5 0 -7
-10 -5 -22 4 -22 4 -22 -5 -3 -5 12 -16 27 -25 34 -16 14 -12 36 5 25 5 -3 7
-9 4 -14 -3 -5 -1 -11 5 -15 5 -3 10 1 10 9 0 8 -5 18 -10 21 -6 4 -8 11 -5
16 3 5 -1 6 -11 2 -14 -5 -15 -3 -5 16 7 12 8 20 4 19 -10 -3 -46 22 -56 39
-4 6 -3 15 3 18 6 4 9 1 8 -6 -2 -7 6 -14 17 -16 l20 -3 -20 9 c-11 5 -16 10
-11 10 5 1 2 9 -7 19 -10 10 -14 21 -11 24 3 3 1 9 -5 12 -5 4 -13 1 -17 -5
-5 -8 -3 -9 7 -4 8 5 11 5 7 0 -4 -4 -3 -13 2 -20 7 -8 5 -12 -5 -12 -8 0 -12
4 -9 8 2 4 0 10 -6 14 -7 4 -7 12 0 25 8 15 5 23 -12 40 -12 11 -26 20 -31 20
-5 0 -7 9 -4 20 3 14 -1 24 -14 31 -11 5 -17 14 -14 20 4 5 1 9 -4 9 -6 0 -11
5 -11 11 0 5 5 7 12 3 7 -5 8 -2 3 7 -20 34 -27 40 -41 28 -14 -12 -20 2 -7
15 11 11 12 36 1 36 -6 0 -8 -7 -5 -14 4 -10 1 -13 -9 -9 -18 7 -18 8 2 27 9
9 11 16 4 16 -6 0 -8 5 -4 12 4 6 3 8 -4 4 -6 -3 -16 0 -24 7 -7 8 -20 12 -28
9 -10 -3 -8 1 4 10 16 13 17 17 5 36 -8 12 -18 22 -23 22 -5 0 -1 -9 9 -20 10
-11 15 -23 12 -27 -4 -3 -7 -1 -7 6 0 7 -5 9 -12 5 -6 -4 -8 -3 -4 4 3 6 -2
15 -11 21 -11 6 -13 11 -5 11 8 0 11 10 9 28 -3 18 -9 26 -20 24 -11 -2 -15 2
-11 12 3 8 -3 19 -15 25 -14 8 -18 18 -15 35 2 14 -1 28 -8 32 -8 5 -9 2 -5
-9 3 -9 2 -19 -4 -22 -5 -4 -8 -1 -7 7 2 7 -3 12 -11 10 -8 -2 -11 3 -8 12 4
9 -2 17 -14 21 -13 4 -18 12 -15 21 3 9 1 12 -4 9 -6 -3 -10 0 -10 7 0 10 -2
10 -9 -1 -5 -8 -11 -9 -15 -3 -3 5 -19 9 -36 8 -23 -2 -27 1 -18 11 8 10 6 13
-6 13 -10 0 -15 4 -12 9 3 5 -1 12 -10 15 -10 4 -13 2 -8 -6 5 -7 3 -8 -7 -3
-7 5 -82 8 -166 7 -118 -1 -152 2 -148 11 4 7 0 4 -8 -5 -8 -10 -22 -15 -34
-12 -25 7 -39 -12 -24 -30 6 -7 8 -16 4 -19 -3 -4 -1 -7 6 -7 7 0 9 -4 6 -10
-3 -5 0 -10 8 -10 10 0 13 -7 10 -20 -3 -12 0 -20 8 -20 7 0 10 -3 6 -6 -5 -6
0 -15 30 -49 10 -11 10 -14 0 -18 -7 -3 -4 -6 6 -6 14 -1 17 -6 11 -23 -3 -13
-3 -20 1 -16 5 4 14 3 22 -3 11 -10 11 -15 1 -27 -11 -13 -10 -15 5 -9 11 4
17 2 17 -7 0 -7 9 -21 19 -30 11 -10 17 -24 14 -32 -3 -8 0 -14 7 -14 6 0 8
-4 5 -10 -3 -5 -1 -10 6 -10 9 0 9 -4 -1 -15 -10 -12 -8 -14 9 -10 14 2 18 -1
14 -11 -3 -8 -10 -14 -16 -14 -6 0 -7 -3 -4 -6 4 -4 12 -2 20 4 10 8 13 6 14
-10 1 -11 10 -26 20 -33 10 -7 15 -17 11 -20 -4 -4 3 -16 15 -26 13 -10 16
-18 9 -19 -10 0 -10 -3 0 -14 7 -8 17 -11 22 -8 5 3 6 0 2 -7 -4 -6 -2 -18 4
-26 7 -8 9 -15 6 -15 -4 0 -1 -6 6 -14 7 -8 16 -12 20 -9 4 2 5 -3 2 -12 -4
-8 -1 -21 5 -29 6 -7 10 -20 8 -27 -2 -8 -2 -11 0 -7 5 8 39 -22 37 -31 -1 -3
7 -19 18 -34 11 -15 18 -34 15 -41 -3 -8 1 -13 11 -12 11 1 16 -5 14 -16 -2
-10 2 -18 7 -18 5 0 8 -9 6 -19 -3 -15 1 -18 13 -14 13 5 15 3 5 -7 -17 -18
12 -61 35 -53 13 4 12 2 -3 -11 -15 -12 -16 -15 -3 -10 10 3 16 1 15 -8 -3
-14 -15 -18 -34 -11 -6 3 -9 11 -7 18 3 7 0 16 -7 21 -8 4 -10 3 -5 -5 4 -6 2
-19 -5 -27 -7 -8 -8 -14 -3 -13 20 3 31 -2 31 -16 0 -8 -4 -12 -8 -9 -4 2 -11
-1 -14 -7 -4 -5 -14 -8 -22 -5 -8 3 -11 2 -8 -4 3 -5 -8 -16 -25 -25 -16 -8
-30 -12 -30 -8 0 5 -5 0 -11 -10 -8 -14 -18 -17 -37 -13 -15 3 -21 3 -14 0 19
-9 14 -24 -7 -24 -11 0 -21 -4 -23 -8 -6 -15 -118 -73 -128 -67 -5 3 -7 0 -4
-8 4 -12 -17 -25 -43 -25 -3 0 -9 -6 -14 -14 -5 -7 -14 -13 -21 -13 -7 -1 -12
-6 -11 -13 2 -6 -4 -9 -13 -5 -8 3 -22 -3 -30 -13 -9 -11 -12 -12 -8 -4 4 8
-3 4 -16 -9 -19 -19 -21 -27 -12 -42 7 -10 12 -26 12 -34 0 -8 3 -15 8 -15 4
0 13 -14 21 -30 10 -24 10 -34 1 -45 -8 -9 -8 -15 -2 -15 6 0 12 6 15 13 3 9
8 9 18 -2 8 -8 9 -11 4 -8 -6 3 -11 -4 -12 -16 0 -12 1 -16 4 -9 3 6 9 12 14
12 4 0 5 -7 2 -17 -5 -12 -3 -14 7 -8 10 6 12 4 7 -8 -4 -10 -1 -17 5 -17 6 0
9 -3 6 -6 -4 -3 2 -14 13 -25 11 -11 17 -24 14 -29 -5 -8 32 -26 46 -22 4 1 5
-8 2 -18 -4 -15 0 -20 13 -20 16 0 17 2 4 11 -13 9 -13 10 0 6 8 -2 14 -13 12
-23 -3 -15 -1 -17 9 -6 16 15 29 16 29 1 0 -5 -4 -8 -9 -5 -11 7 -8 -20 3 -31
4 -4 6 -2 4 6 -2 8 9 17 27 22 27 7 28 7 11 -6 -18 -14 -14 -35 7 -35 9 0 9 2
0 8 -9 5 -6 12 10 21 21 13 21 13 7 -4 -14 -17 -13 -18 5 -11 20 7 20 7 0 -11
-11 -10 -29 -25 -40 -33 -17 -13 -18 -13 -11 0 4 8 -1 4 -12 -10 -20 -24 -20
-34 -1 -36 5 -1 12 -2 15 -3 4 0 1 -7 -5 -15 -9 -11 -6 -17 15 -31 14 -9 23
-19 21 -22 -3 -2 6 -21 19 -41 14 -19 27 -46 30 -59 4 -13 10 -23 15 -23 5 0
9 -10 9 -22 0 -12 3 -18 7 -15 4 4 12 -6 19 -23 7 -17 19 -29 26 -28 7 2 13
-6 13 -17 0 -11 6 -21 13 -21 6 -1 19 -2 28 -3 8 0 13 -5 10 -10 -4 -5 2 -8
11 -6 10 1 24 -2 31 -8 9 -7 11 -5 5 9 -6 17 -5 17 10 5 13 -11 17 -11 17 -1
0 8 3 10 6 7 4 -4 1 -13 -6 -22 -7 -9 -10 -18 -6 -22 3 -3 6 -1 6 6 0 7 5 9
11 6 6 -4 8 -12 6 -19 -3 -6 3 -12 12 -12 10 0 18 6 18 13 0 6 -5 11 -10 10
-5 -1 -11 4 -12 11 -2 7 -1 8 2 2 2 -5 9 -8 14 -4 5 3 12 -2 15 -10 5 -13 8
-13 20 -1 8 7 14 18 14 24 0 6 6 8 14 5 16 -6 40 29 28 41 -4 5 -2 5 5 1 6 -3
15 -2 18 4 5 8 16 5 33 -6 27 -17 27 -17 9 3 -16 19 -16 21 5 39 12 10 18 14
15 7 -4 -6 -3 -14 3 -18 5 -3 11 -1 11 4 1 6 2 15 3 20 0 5 5 13 10 18 5 5 6
3 2 -4 -4 -7 -3 -13 3 -13 6 0 8 -8 5 -17 -5 -17 -5 -17 6 0 6 9 9 21 6 26 -3
5 0 14 8 20 10 9 15 8 19 -3 4 -11 1 -13 -11 -9 -14 6 -15 5 -2 -9 16 -17 34
-3 23 16 -4 5 1 7 10 3 8 -3 18 0 21 8 3 9 -1 12 -15 10 -11 -2 -17 0 -14 5 6
9 24 8 42 -3 9 -6 11 -3 7 7 -4 11 0 13 18 9 21 -5 22 -4 5 8 -16 13 -14 14
15 14 18 -1 40 -5 48 -9 12 -7 13 -6 3 4 -10 11 -9 16 5 27 15 12 14 13 -6 3
-13 -7 -26 -9 -29 -7 -2 3 5 8 16 12 12 3 21 11 21 18 0 6 7 2 15 -9 8 -10 15
-15 15 -10 0 5 6 5 13 0 7 -5 4 -1 -6 9 -19 16 -12 24 8 9 17 -12 41 -47 28
-38 -7 4 -13 2 -13 -3 0 -6 5 -11 10 -11 6 0 10 -7 10 -15 0 -8 -5 -15 -12
-15 -6 0 -8 -3 -5 -6 4 -4 14 -1 23 7 16 13 17 12 11 -9 -4 -19 -2 -22 10 -18
13 6 14 4 3 -9 -11 -13 -11 -16 1 -13 9 2 13 -5 11 -21 -2 -21 0 -22 15 -10
11 9 14 10 9 2 -4 -8 -2 -13 5 -13 9 0 9 -3 0 -14 -9 -11 -9 -16 0 -22 8 -5 9
-3 4 7 -8 12 -6 12 8 0 9 -7 17 -22 17 -32 0 -11 5 -19 11 -19 8 0 7 -5 -1
-15 -11 -13 -10 -14 4 -9 11 4 16 1 16 -11 0 -10 5 -13 12 -9 7 4 8 3 4 -4 -4
-7 -2 -12 3 -12 6 0 11 -9 11 -20 0 -11 5 -20 10 -20 6 0 9 -3 9 -7 -4 -22 2
-33 13 -27 8 5 9 2 5 -9 -4 -11 -1 -17 8 -17 8 0 15 -5 15 -11 0 -5 -4 -7 -10
-4 -5 3 -10 2 -10 -3 0 -5 9 -12 21 -15 12 -3 18 -10 15 -16 -4 -5 -1 -13 6
-18 7 -4 23 -28 36 -52 16 -32 19 -47 12 -56 -8 -10 -8 -15 1 -21 8 -5 9 -3 4
5 -5 9 -2 12 11 9 12 -2 18 -11 16 -22 -2 -11 1 -15 7 -11 7 4 8 0 4 -11 -4
-12 -3 -15 5 -10 8 5 10 1 5 -10 -4 -12 -3 -15 6 -10 7 5 10 2 9 -6 -2 -7 2
-12 8 -11 6 1 11 -4 11 -12 0 -8 -3 -12 -7 -10 -4 2 -7 -2 -7 -10 0 -8 7 -17
14 -19 8 -3 11 -2 8 3 -3 5 0 13 6 17 7 4 9 3 6 -3 -4 -6 0 -16 8 -23 10 -8
13 -21 9 -33 -5 -15 -3 -17 7 -11 11 6 11 5 0 -9 -12 -15 -12 -17 1 -12 9 4
19 -4 26 -20 7 -15 8 -24 4 -21 -5 3 -9 -2 -9 -10 0 -8 6 -13 14 -10 7 3 18
-5 24 -17 12 -21 11 -21 -7 -7 -18 14 -18 14 -5 -3 7 -9 21 -17 30 -18 12 0
11 -2 -4 -9 -18 -8 -18 -9 -2 -9 22 -1 35 -30 18 -41 -9 -5 -8 -9 4 -13 9 -4
13 -3 10 3 -3 6 -1 10 4 10 6 0 11 -12 11 -26 0 -14 4 -23 10 -19 9 6 14 -8
11 -27 0 -5 4 -8 9 -8 6 0 10 -7 10 -15 0 -8 5 -15 11 -15 6 0 8 -7 5 -16 -3
-8 -2 -12 4 -9 6 3 10 2 10 -3 0 -6 11 -13 25 -16 14 -4 25 -11 25 -17 0 -6
13 -8 33 -5 17 3 26 3 18 0 -11 -5 -11 -8 0 -14 7 -5 -17 -8 -54 -7 -37 1 -67
-1 -67 -5 0 -4 -13 -3 -30 2 -21 6 -30 5 -30 -3 0 -7 -4 -6 -10 3 -8 12 -11
13 -19 1 -6 -10 -10 -10 -16 -1 -6 9 -10 9 -16 -1 -7 -11 -9 -9 -9 6 0 11 -4
15 -8 10 -8 -12 -72 -15 -72 -4 0 4 -12 6 -27 4 -16 -2 -34 2 -40 7 -9 7 -13
7 -13 -2 0 -10 -3 -10 -15 0 -8 6 -19 9 -25 5 -5 -3 -10 -2 -10 2 0 5 -18 9
-39 8 -22 -1 -38 2 -35 6 2 4 -4 8 -13 8 -10 -1 -31 2 -48 6 -16 4 -36 8 -42
8 -7 0 -13 3 -13 7 0 4 -6 7 -12 8 -32 2 -83 15 -88 20 -3 4 -16 8 -30 10 -14
1 -26 7 -28 12 -2 5 -10 6 -18 3 -8 -3 -14 -1 -14 4 0 5 -12 10 -27 11 -15 1
-32 7 -37 12 -6 6 -18 10 -28 10 -10 0 -18 5 -18 10 0 6 -6 10 -12 9 -16 -3
-190 81 -200 96 -4 5 -8 6 -8 1 0 -4 -15 3 -34 17 -18 15 -36 23 -40 20 -3 -4
-6 0 -6 7 0 7 -3 11 -6 7 -4 -3 -13 1 -21 9 -8 8 -19 12 -24 9 -5 -4 -9 1 -9
10 0 9 -4 14 -9 11 -5 -3 -21 6 -37 21 -16 15 -30 26 -31 25 -10 -7 -23 1 -23
13 0 8 -3 14 -7 14 -21 -3 -33 3 -33 17 0 8 -4 13 -8 10 -5 -3 -18 3 -29 13
-10 10 -29 24 -41 30 -13 7 -20 16 -17 22 4 5 1 9 -5 9 -13 0 -24 9 -95 77
-29 28 -56 49 -59 45 -3 -3 -6 0 -6 6 0 6 -20 33 -45 59 -25 25 -45 51 -45 55
0 5 -5 6 -10 3 -9 -6 -14 8 -11 28 0 4 -5 7 -12 7 -7 0 -19 10 -27 21 -8 12
-21 28 -28 35 -7 8 -10 14 -6 14 4 0 -3 8 -14 19 -12 10 -22 23 -22 30 0 6 -5
11 -11 11 -5 0 -8 4 -5 9 3 5 -1 11 -9 15 -8 3 -15 13 -15 21 0 9 -4 14 -9 11
-5 -3 -14 8 -21 24 -7 16 -16 27 -21 24 -5 -3 -6 1 -3 9 3 8 -6 27 -21 41 -14
14 -21 26 -14 26 7 0 3 8 -7 17 -20 19 -64 102 -64 122 0 6 -4 11 -9 11 -5 0
-12 7 -15 16 -4 10 -2 13 7 8 6 -4 4 2 -6 13 -9 11 -17 25 -17 31 0 7 -5 12
-11 12 -5 0 -8 4 -5 9 3 4 -1 16 -8 27 -8 10 -12 24 -9 31 3 7 0 13 -7 13 -6
0 -8 5 -5 10 3 6 1 10 -5 10 -6 0 -8 4 -5 10 3 5 2 10 -3 10 -6 0 -8 9 -5 20
3 11 0 20 -6 20 -6 0 -11 9 -11 19 0 11 -4 23 -10 26 -5 3 -10 17 -10 31 0 14
-4 23 -9 20 -5 -3 -9 0 -8 7 1 39 -4 67 -12 63 -5 -4 -7 2 -4 12 2 10 -1 31
-8 47 -6 17 -13 41 -14 55 -2 14 -6 43 -10 65 -3 22 -8 56 -10 75 -2 19 -5 37
-6 40 -1 3 -3 19 -4 35 -1 17 -6 29 -13 27 -7 -1 -12 2 -12 8 0 5 3 10 8 10 4
0 7 14 7 30 0 17 -2 30 -5 30 -3 0 -5 72 -6 160 0 106 3 160 10 160 6 0 4 5
-4 10 -8 5 -10 10 -5 10 6 0 10 17 9 37 -1 21 2 46 7 55 7 12 6 18 -1 18 -8 0
-8 6 0 20 6 11 8 25 5 30 -3 6 -3 10 2 10 4 0 9 19 10 41 2 23 8 49 15 57 11
13 11 14 -1 8 -10 -7 -12 -3 -6 14 4 12 8 28 10 34 1 6 5 18 8 26 8 17 15 56
16 83 1 10 4 16 9 14 4 -3 7 5 8 16 2 31 8 60 17 75 5 6 5 17 2 22 -3 6 0 13
8 16 9 3 14 16 12 30 -1 13 4 28 12 33 8 4 15 11 14 14 -1 10 9 39 20 59 5 10
9 25 9 33 0 9 4 13 10 10 6 -3 7 1 4 9 -3 9 -1 16 6 16 6 0 9 4 5 9 -3 5 2 17
11 25 8 9 12 16 8 16 -3 0 0 8 7 17 12 14 12 16 -1 9 -10 -5 -9 -3 2 6 9 8 20
27 24 42 3 15 13 30 20 33 8 3 12 9 9 13 -3 5 -1 11 5 15 6 4 8 11 5 16 -4 5
-1 9 5 9 6 0 13 8 17 18 3 9 15 28 27 41 12 13 15 21 9 17 -9 -5 -11 -2 -7 8
3 9 10 13 15 11 5 -3 11 6 15 20 3 14 10 25 16 25 5 0 6 5 3 10 -3 6 -1 10 5
10 6 0 15 11 22 25 6 13 15 22 19 19 5 -3 11 7 15 21 3 14 16 32 27 40 12 8
18 15 14 15 -6 0 23 37 31 39 1 1 0 -63 -3 -141z m3572 76 c2 -13 1 -15 -4 -4
-3 8 -11 19 -17 23 -7 6 -6 7 4 4 8 -2 16 -12 17 -23z m-2484 -59 c15 1 27 -1
27 -4 -1 -7 -68 -81 -74 -81 -3 0 -3 12 -1 28 2 15 4 38 4 52 1 14 5 20 9 14
4 -6 19 -10 35 -9z m311 -86 c-2 -23 -7 -45 -10 -50 -6 -10 -74 -13 -74 -3 0
5 81 94 86 94 1 0 0 -18 -2 -41z m-604 -51 c0 -18 -2 -20 -9 -8 -6 8 -7 18 -5
22 9 14 14 9 14 -14z m2824 -589 c-8 -14 -21 -11 -21 5 0 8 6 12 14 9 7 -3 10
-9 7 -14z m-2967 -25 c-3 -3 -12 -4 -19 -1 -8 3 -5 6 6 6 11 1 17 -2 13 -5z
m28 -41 c-2 -10 -4 -19 -4 -21 -1 -2 -6 0 -11 3 -8 5 -7 11 1 21 15 18 18 18
14 -3z m2895 -17 c0 -3 -4 -8 -10 -11 -5 -3 -10 -1 -10 4 0 6 5 11 10 11 6 0
10 -2 10 -4z m-43 -61 c0 -8 -4 -15 -9 -15 -10 0 -11 14 -1 23 9 10 10 9 10
-8z m-2772 -66 c-4 -5 -12 -9 -18 -8 -9 0 -8 2 1 6 6 2 9 10 6 15 -4 7 -2 8 5
4 6 -4 9 -12 6 -17z m55 -80 c0 -5 -8 -9 -17 -8 -11 0 -13 3 -5 6 6 2 9 10 6
15 -4 7 -2 8 4 4 7 -4 12 -11 12 -17z m1340 -4 c8 5 11 4 6 -3 -10 -16 -45
-11 -39 6 5 10 8 11 13 2 5 -7 13 -9 20 -5z m105 6 c3 -5 2 -12 -3 -15 -5 -3
-9 1 -9 9 0 17 3 19 12 6z m240 0 c3 -5 2 -12 -3 -15 -5 -3 -9 1 -9 9 0 17 3
19 12 6z m202 -1 c16 13 16 12 -1 -8 -24 -28 -31 -28 -33 0 -2 17 0 19 7 9 7
-13 11 -13 27 -1z m-1813 -139 c14 -15 15 -21 4 -27 -7 -4 -10 -4 -6 0 9 11
-14 36 -26 28 -5 -3 -6 0 -2 6 9 15 10 15 30 -7z m76 -146 c7 -9 8 -15 2 -15
-5 0 -12 7 -16 15 -3 8 -4 15 -2 15 2 0 9 -7 16 -15z m2222 -174 c-9 -16 -18
-28 -20 -27 -5 6 21 56 29 56 5 0 0 -13 -9 -29z m-2632 -23 c0 -6 -6 -5 -15 2
-8 7 -15 14 -15 16 0 2 7 1 15 -2 8 -4 15 -11 15 -16z m2557 -90 c-3 -8 -6 -5
-6 6 -1 11 2 17 5 13 3 -3 4 -12 1 -19z m82 -92 c9 -11 9 -16 0 -22 -8 -4 -9
-3 -5 4 4 7 2 12 -3 12 -6 0 -11 5 -11 10 0 14 5 13 19 -4z m411 -376 c-9 -17
-40 -19 -40 -3 0 3 7 3 15 -1 14 -5 20 5 16 27 -1 5 3 6 9 2 7 -4 7 -12 0 -25z
m-2190 -45 c0 -8 -2 -15 -4 -15 -2 0 -6 7 -10 15 -3 8 -1 15 4 15 6 0 10 -7
10 -15z m2037 -161 c-3 -3 -12 -4 -19 -1 -8 3 -5 6 6 6 11 1 17 -2 13 -5z
m-847 -249 c0 -2 -10 -10 -22 -16 -21 -11 -22 -11 -9 4 13 16 31 23 31 12z
m281 -69 c5 3 9 0 9 -6 0 -15 -23 -7 -26 8 -1 7 0 8 3 2 2 -5 9 -8 14 -4z
m-2390 -89 c-10 -9 -11 -8 -5 6 3 10 9 15 12 12 3 -3 0 -11 -7 -18z m56 -14
c0 -10 -4 -10 -16 -1 -9 7 -18 13 -20 15 -2 1 5 1 16 0 11 0 20 -7 20 -14z
m128 -22 c3 -5 2 -12 -3 -15 -5 -3 -9 1 -9 9 0 17 3 19 12 6z m1785 -65 c0 -3
-4 -8 -10 -11 -5 -3 -10 -1 -10 4 0 6 5 11 10 11 6 0 10 -2 10 -4z m-290 -466
c0 -5 -5 -10 -11 -10 -5 0 -7 5 -4 10 3 6 8 10 11 10 2 0 4 -4 4 -10z m-229
-403 c-10 -9 -11 -8 -5 6 3 10 9 15 12 12 3 -3 0 -11 -7 -18z m-56 3 c3 -5 1
-10 -4 -10 -6 0 -11 5 -11 10 0 6 2 10 4 10 3 0 8 -4 11 -10z"/>
<path d="M1304 3519 c-8 -14 14 -19 25 -6 8 10 7 14 -5 14 -8 0 -17 -4 -20 -8z"/>
<path d="M1433 3523 c4 -3 -1 -12 -11 -20 -15 -13 -15 -13 6 -3 23 11 30 30
10 30 -6 0 -8 -3 -5 -7z"/>
<path d="M1997 3517 c-3 -8 -2 -19 3 -26 5 -9 9 -4 12 13 5 27 -6 36 -15 13z"/>
<path d="M2771 3513 c7 -12 15 -20 18 -17 3 2 -3 12 -13 22 -17 16 -18 16 -5
-5z"/>
<path d="M3106 3522 c-3 -5 1 -9 9 -9 8 0 12 4 9 9 -3 4 -7 8 -9 8 -2 0 -6 -4
-9 -8z"/>
<path d="M3310 3520 c-9 -6 -10 -10 -3 -10 6 0 15 5 18 10 8 12 4 12 -15 0z"/>
<path d="M3420 3515 c-1 -11 -2 -24 -1 -28 1 -4 -3 -16 -9 -27 -7 -13 -7 -21
0 -25 6 -4 8 -11 5 -16 -4 -5 -1 -9 4 -9 15 0 14 17 -1 26 -8 5 -7 10 3 18 10
8 12 22 8 46 -4 21 -7 27 -9 15z"/>
<path d="M1861 3498 c0 -15 3 -29 9 -33 5 -3 7 -12 4 -19 -3 -8 -2 -16 3 -19
4 -3 9 6 9 19 1 13 -2 24 -6 24 -5 0 -11 12 -13 28 l-4 27 -2 -27z"/>
<path d="M2286 3497 c2 -11 -2 -24 -8 -28 -7 -5 -9 -11 -5 -15 9 -10 23 5 31
32 4 14 2 24 -8 27 -11 4 -14 0 -10 -16z"/>
<path d="M2549 3518 c-6 -23 -7 -48 -1 -48 4 0 8 11 8 25 0 21 -4 33 -7 23z"/>
<path d="M3007 3507 c-3 -8 -2 -20 3 -26 5 -9 8 -4 8 13 0 29 -3 32 -11 13z"/>
<path d="M3541 3492 c-21 -46 -23 -82 -3 -81 10 0 12 3 5 5 -9 4 -9 13 -2 32
6 15 10 28 10 30 -1 1 2 2 7 1 4 -1 6 -5 4 -11 -1 -5 2 -7 8 -3 5 3 10 2 10
-4 0 -5 -4 -12 -10 -16 -5 -3 -7 -12 -3 -21 7 -20 13 -12 19 25 3 19 1 31 -6
31 -6 0 -9 4 -6 9 3 5 0 14 -8 20 -10 8 -16 5 -25 -17z"/>
<path d="M3723 3506 c3 -7 1 -18 -4 -23 -6 -6 -4 -10 5 -10 8 0 13 4 10 8 -2
4 0 10 6 14 12 7 4 25 -12 25 -5 0 -8 -6 -5 -14z"/>
<path d="M1527 3499 c6 -6 9 -19 6 -28 -4 -13 -3 -13 5 -2 12 16 5 41 -11 41
-8 0 -8 -3 0 -11z"/>
<path d="M1560 3491 c-12 -24 -13 -44 -1 -37 8 5 22 56 15 56 -2 0 -8 -9 -14
-19z"/>
<path d="M1635 3500 c-3 -5 -1 -10 4 -10 6 0 11 5 11 10 0 6 -2 10 -4 10 -3 0
-8 -4 -11 -10z"/>
<path d="M1691 3503 c3 -21 -3 -31 -25 -41 -15 -7 -23 -18 -22 -29 3 -20 28
-25 32 -5 1 7 0 8 -3 2 -7 -15 -20 -12 -20 5 0 8 9 15 19 15 11 0 23 11 28 26
12 32 12 34 0 34 -5 0 -9 -3 -9 -7z"/>
<path d="M2155 3500 c3 -5 8 -10 11 -10 2 0 4 5 4 10 0 6 -5 10 -11 10 -5 0
-7 -4 -4 -10z"/>
<path d="M2210 3499 c0 -5 5 -7 10 -4 6 3 10 8 10 11 0 2 -4 4 -10 4 -5 0 -10
-5 -10 -11z"/>
<path d="M2327 3488 c-17 -18 -17 -20 -1 -36 13 -13 16 -13 12 -2 -3 8 -1 23
4 33 13 25 7 27 -15 5z"/>
<path d="M2571 3498 c0 -9 4 -20 10 -23 6 -4 8 -13 5 -21 -3 -7 -2 -16 3 -18
4 -3 8 0 9 7 0 7 3 23 6 35 4 19 3 22 -9 12 -10 -9 -14 -7 -18 7 -4 16 -5 16
-6 1z"/>
<path d="M3075 3500 c-3 -5 -1 -10 4 -10 6 0 11 5 11 10 0 6 -2 10 -4 10 -3 0
-8 -4 -11 -10z"/>
<path d="M3195 3483 c1 -13 -1 -26 -5 -28 -13 -8 -5 -39 11 -43 9 -2 10 0 4 5
-14 11 -13 29 2 44 9 9 16 9 26 1 11 -9 14 -8 14 3 0 8 -4 12 -9 9 -4 -3 -8 0
-8 6 0 6 -5 8 -12 4 -10 -6 -9 -3 0 9 12 14 11 16 -6 14 -14 -1 -19 -7 -17
-24z"/>
<path d="M3460 3496 c-8 -11 -9 -20 -1 -33 11 -17 11 -17 9 2 -1 11 1 26 5 33
11 17 2 15 -13 -2z"/>
<path d="M1350 3489 c0 -5 -4 -8 -9 -4 -5 3 -12 1 -15 -4 -8 -13 22 -7 36 7 9
9 9 12 0 12 -7 0 -12 -5 -12 -11z"/>
<path d="M2735 3491 c-3 -5 -2 -12 3 -15 5 -3 9 1 9 9 0 17 -3 19 -12 6z"/>
<path d="M2852 3487 c-7 -8 -6 -19 4 -37 l15 -25 -5 25 c-5 23 -4 24 9 7 20
-28 9 -49 -18 -36 -20 9 -20 9 -5 -4 10 -8 14 -18 10 -23 -4 -4 0 -3 9 4 9 6
18 9 21 7 3 -3 4 9 2 27 -2 18 -11 36 -19 41 -9 4 -13 12 -10 18 9 13 -1 11
-13 -4z"/>
<path d="M3299 3498 c-6 -20 -6 -37 1 -33 4 3 11 -2 14 -11 8 -22 8 -26 -3
-19 -5 3 -13 0 -17 -6 -4 -8 -3 -9 4 -5 7 4 12 1 12 -6 0 -7 6 -4 12 7 6 11
19 26 27 33 13 11 14 13 1 9 -20 -6 -52 11 -45 24 4 5 4 9 1 9 -3 0 -6 -1 -7
-2z"/>
<path d="M3770 3489 c0 -5 -4 -8 -9 -5 -8 5 -7 -41 1 -49 2 -2 10 5 17 17 9
14 9 18 1 13 -9 -5 -10 -1 -5 14 3 11 4 21 1 21 -3 0 -6 -5 -6 -11z"/>
<path d="M1301 3474 c0 -11 3 -14 6 -6 3 7 2 16 -1 19 -3 4 -6 -2 -5 -13z"/>
<path d="M1419 3479 c-12 -7 -12 -9 1 -9 11 0 12 -2 3 -8 -7 -4 -11 -17 -10
-29 1 -17 4 -19 14 -11 15 12 17 22 3 13 -5 -3 -10 -2 -10 4 0 15 13 19 35 10
11 -4 14 -8 8 -8 -7 -1 -13 -6 -13 -12 0 -8 4 -8 15 1 26 22 -16 68 -46 49z"/>
<path d="M1767 3473 c5 -12 3 -14 -7 -8 -9 6 -11 4 -6 -4 5 -7 14 -10 20 -8 7
3 19 1 27 -4 11 -6 11 -11 1 -21 -6 -6 -12 -16 -12 -21 0 -5 7 -2 15 7 20 20
20 57 0 50 -8 -4 -17 1 -21 10 -3 9 -10 16 -15 16 -4 0 -5 -7 -2 -17z"/>
<path d="M1910 3479 c0 -5 5 -7 10 -4 6 3 10 8 10 11 0 2 -4 4 -10 4 -5 0 -10
-5 -10 -11z"/>
<path d="M2954 3477 c2 -7 7 -20 11 -30 6 -15 10 -16 16 -5 12 19 11 22 -10
35 -15 9 -19 9 -17 0z"/>
<path d="M2098 3465 c7 -11 8 -15 11 -42 2 -16 3 -15 10 2 5 11 4 25 -1 32 -6
8 -3 13 9 16 10 3 6 4 -9 4 -16 -1 -24 -5 -20 -12z"/>
<path d="M2200 3470 c-8 -5 -12 -11 -10 -14 3 -2 14 2 24 10 22 15 10 19 -14
4z"/>
<path d="M3091 3462 c35 -29 33 -59 -4 -53 -5 1 -6 -3 -2 -9 4 -6 12 -7 24 0
21 11 24 67 4 63 -7 -2 -13 2 -13 7 0 6 -7 10 -16 10 -13 0 -11 -4 7 -18z"/>
<path d="M1970 3445 c0 -33 15 -33 16 0 1 14 -2 25 -7 25 -5 0 -9 -11 -9 -25z"/>
<path d="M2025 3454 c3 -13 -1 -28 -10 -38 -9 -9 -12 -16 -6 -16 19 0 33 39
21 58 -10 15 -10 14 -5 -4z"/>
<path d="M2390 3460 c0 -5 7 -10 15 -10 14 0 38 -33 30 -42 -3 -3 2 -5 10 -5
16 0 11 12 -18 45 -22 23 -37 29 -37 12z"/>
<path d="M2654 3440 c-1 -16 3 -30 8 -30 5 0 7 4 3 9 -3 5 -1 12 4 16 6 3 8
12 4 20 -9 24 -18 17 -19 -15z"/>
<path d="M2702 3458 c-16 -16 -15 -26 2 -43 12 -12 15 -12 20 0 3 9 0 15 -9
15 -18 0 -19 12 -3 28 7 7 10 12 7 12 -3 0 -10 -5 -17 -12z"/>
<path d="M2750 3460 c-12 -7 -10 -9 7 -7 12 0 19 5 17 9 -6 10 -6 10 -24 -2z"/>
<path d="M3650 3446 c0 -13 -6 -26 -12 -29 -7 -3 -4 -5 8 -4 16 1 20 6 16 20
-3 10 1 23 9 28 11 7 10 9 -3 9 -12 0 -18 -8 -18 -24z"/>
<path d="M3827 3453 c3 -7 9 -10 14 -7 5 3 9 0 9 -7 0 -7 2 -10 5 -7 9 9 -5
35 -19 35 -8 0 -12 -6 -9 -14z"/>
<path d="M3057 3445 c-4 -8 -2 -17 3 -20 6 -4 10 3 10 14 0 25 -6 27 -13 6z"/>
<path d="M1526 3442 c-3 -5 1 -9 9 -9 8 0 12 4 9 9 -3 4 -7 8 -9 8 -2 0 -6 -4
-9 -8z"/>
<path d="M1740 3442 c0 -6 5 -14 10 -17 6 -4 8 -10 6 -14 -3 -4 1 -8 9 -8 12
0 12 4 -2 21 -10 12 -19 23 -20 25 -2 2 -3 -1 -3 -7z"/>
<path d="M3670 3440 c0 -5 4 -10 9 -10 5 0 13 -9 16 -21 4 -11 9 -18 11 -16 7
7 -18 57 -28 57 -4 0 -8 -4 -8 -10z"/>
<path d="M3879 3448 c-6 -25 -6 -38 1 -38 12 0 20 29 10 35 -6 4 -10 5 -11 3z"/>
<path d="M2267 3427 c-3 -8 1 -14 8 -14 7 0 11 6 8 14 -3 7 -6 13 -8 13 -2 0
-5 -6 -8 -13z"/>
<path d="M2390 3430 c0 -5 5 -10 11 -10 5 0 7 5 4 10 -3 6 -8 10 -11 10 -2 0
-4 -4 -4 -10z"/>
<path d="M3830 3421 c0 -6 4 -13 10 -16 6 -3 7 1 4 9 -7 18 -14 21 -14 7z"/>
<path d="M1538 3408 c5 -5 16 -8 23 -6 8 3 3 7 -10 11 -17 4 -21 3 -13 -5z"/>
<path d="M2301 3404 c0 -11 3 -14 6 -6 3 7 2 16 -1 19 -3 4 -6 -2 -5 -13z"/>
<path d="M2952 3416 c2 -1 10 -7 19 -14 13 -10 19 -10 27 0 8 10 3 13 -19 14
-16 1 -28 1 -27 0z"/>
<path d="M1878 3403 c7 -3 16 -2 19 1 4 3 -2 6 -13 5 -11 0 -14 -3 -6 -6z"/>
<path d="M1910 3400 c0 -5 5 -10 11 -10 5 0 7 5 4 10 -3 6 -8 10 -11 10 -2 0
-4 -4 -4 -10z"/>
<path d="M1036 3367 c3 -10 9 -15 12 -12 3 3 0 11 -7 18 -10 9 -11 8 -5 -6z"/>
<path d="M1134 3360 c0 -13 4 -16 10 -10 7 7 7 13 0 20 -6 6 -10 3 -10 -10z"/>
<path d="M2930 3365 c-7 -9 -11 -17 -9 -20 3 -2 10 5 17 15 14 24 10 26 -8 5z"/>
<path d="M3355 3369 c-4 -6 -5 -12 -2 -15 2 -3 7 2 10 11 7 17 1 20 -8 4z"/>
<path d="M2059 3353 c-13 -17 -13 -17 6 -3 11 8 22 16 24 17 2 2 0 3 -6 3 -6
0 -17 -8 -24 -17z"/>
<path d="M2160 3360 c-9 -6 -10 -10 -3 -10 6 0 15 5 18 10 8 12 4 12 -15 0z"/>
<path d="M2293 3355 c0 -8 4 -12 9 -9 5 3 6 10 3 15 -9 13 -12 11 -12 -6z"/>
<path d="M2441 3354 c0 -11 3 -14 6 -6 3 7 2 16 -1 19 -3 4 -6 -2 -5 -13z"/>
<path d="M2539 3353 c-12 -16 -12 -17 2 -6 9 7 20 9 24 5 5 -4 5 -1 1 6 -9 16
-11 15 -27 -5z"/>
<path d="M2630 3358 c0 -4 4 -8 9 -8 6 0 12 4 15 8 3 5 -1 9 -9 9 -8 0 -15 -4
-15 -9z"/>
<path d="M2773 3355 c0 -8 4 -12 9 -9 5 3 6 10 3 15 -9 13 -12 11 -12 -6z"/>
<path d="M2805 3359 c-4 -6 -5 -12 -2 -15 2 -3 7 2 10 11 7 17 1 20 -8 4z"/>
<path d="M2893 3355 c0 -8 4 -12 9 -9 5 3 6 10 3 15 -9 13 -12 11 -12 -6z"/>
<path d="M3019 3353 c-13 -16 -12 -17 4 -4 16 13 21 21 13 21 -2 0 -10 -8 -17
-17z"/>
<path d="M3096 3362 c-3 -4 4 -9 15 -9 23 -2 25 3 4 10 -8 4 -16 3 -19 -1z"/>
<path d="M3175 3360 c-2 -3 5 -7 16 -7 10 -1 19 2 19 6 0 9 -29 10 -35 1z"/>
<path d="M3441 3354 c0 -11 3 -14 6 -6 3 7 2 16 -1 19 -3 4 -6 -2 -5 -13z"/>
<path d="M3561 3354 c0 -11 3 -14 6 -6 3 7 2 16 -1 19 -3 4 -6 -2 -5 -13z"/>
<path d="M3657 3351 c-10 -14 -10 -14 4 -4 9 7 18 10 21 7 3 -3 8 -1 12 4 9
16 -24 9 -37 -7z"/>
<path d="M3830 3361 c0 -6 4 -12 8 -15 5 -3 9 1 9 9 0 8 -4 15 -9 15 -4 0 -8
-4 -8 -9z"/>
<path d="M3961 3354 c0 -11 3 -14 6 -6 3 7 2 16 -1 19 -3 4 -6 -2 -5 -13z"/>
<path d="M1286 3298 c3 -5 10 -6 15 -3 13 9 11 12 -6 12 -8 0 -12 -4 -9 -9z"/>
<path d="M4360 3300 c-9 -6 -10 -10 -3 -10 6 0 15 5 18 10 8 12 4 12 -15 0z"/>
<path d="M1647 3219 c7 -7 15 -10 18 -7 3 3 -2 9 -12 12 -14 6 -15 5 -6 -5z"/>
<path d="M1435 3180 c-3 -5 -1 -10 4 -10 6 0 11 5 11 10 0 6 -2 10 -4 10 -3 0
-8 -4 -11 -10z"/>
<path d="M1706 3143 c-6 -14 -5 -15 5 -6 7 7 10 15 7 18 -3 3 -9 -2 -12 -12z"/>
<path d="M1766 3042 c-3 -5 1 -9 9 -9 8 0 12 4 9 9 -3 4 -7 8 -9 8 -2 0 -6 -4
-9 -8z"/>
<path d="M971 3017 c2 -1 13 -9 24 -17 19 -14 19 -14 6 3 -7 9 -18 17 -24 17
-6 0 -8 -1 -6 -3z"/>
<path d="M970 2986 c0 -2 7 -7 16 -10 8 -3 12 -2 9 4 -6 10 -25 14 -25 6z"/>
<path d="M3535 2849 c-4 -6 -4 -13 -1 -16 3 -4 6 -1 6 6 0 8 7 11 15 7 8 -3
15 -1 15 4 0 13 -27 13 -35 -1z"/>
<path d="M1070 2839 c0 -5 5 -7 10 -4 6 3 10 8 10 11 0 2 -4 4 -10 4 -5 0 -10
-5 -10 -11z"/>
<path d="M3190 2846 c0 -2 7 -7 16 -10 8 -3 12 -2 9 4 -6 10 -25 14 -25 6z"/>
<path d="M1075 2799 c-3 -4 2 -6 10 -5 21 3 28 13 10 13 -9 0 -18 -4 -20 -8z"/>
<path d="M3535 2800 c-3 -5 -1 -10 4 -10 6 0 11 5 11 10 0 6 -2 10 -4 10 -3 0
-8 -4 -11 -10z"/>
<path d="M1660 2786 c0 -2 7 -7 16 -10 8 -3 12 -2 9 4 -6 10 -25 14 -25 6z"/>
<path d="M1920 2771 c0 -6 4 -13 10 -16 6 -3 7 1 4 9 -7 18 -14 21 -14 7z"/>
<path d="M2495 2730 c3 -5 8 -10 11 -10 2 0 4 5 4 10 0 6 -5 10 -11 10 -5 0
-7 -4 -4 -10z"/>
<path d="M1156 2667 c3 -10 9 -15 12 -12 3 3 0 11 -7 18 -10 9 -11 8 -5 -6z"/>
<path d="M2567 2583 c5 -12 3 -14 -7 -8 -8 5 -11 4 -6 -3 4 -6 13 -9 22 -5 11
4 12 9 3 19 -15 19 -20 18 -12 -3z"/>
<path d="M1216 2558 c3 -5 10 -6 15 -3 13 9 11 12 -6 12 -8 0 -12 -4 -9 -9z"/>
<path d="M2354 2549 c-3 -5 -10 -7 -15 -4 -5 4 -9 1 -9 -4 0 -14 13 -14 28 1
9 9 12 9 12 -1 0 -14 20 -11 23 3 3 12 -32 16 -39 5z"/>
<path d="M2454 2548 c-3 -5 -1 -15 5 -21 9 -9 11 -8 5 6 -7 19 14 21 29 2 5
-6 7 -4 5 4 -5 17 -35 23 -44 9z"/>
<path d="M2410 2538 c0 -4 4 -8 9 -8 6 0 12 4 15 8 3 5 -1 9 -9 9 -8 0 -15 -4
-15 -9z"/>
<path d="M1256 2482 c-3 -5 1 -9 9 -9 8 0 12 4 9 9 -3 4 -7 8 -9 8 -2 0 -6 -4
-9 -8z"/>
<path d="M4017 2475 c-4 -8 -3 -16 1 -19 4 -3 9 4 9 15 2 23 -3 25 -10 4z"/>
<path d="M1870 2415 c5 -7 7 -14 4 -17 -2 -3 2 -8 11 -12 12 -4 14 -2 6 13 -6
10 -8 20 -6 23 3 3 -2 5 -10 5 -10 0 -12 -4 -5 -12z"/>
<path d="M3276 2328 c3 -5 10 -6 15 -3 13 9 11 12 -6 12 -8 0 -12 -4 -9 -9z"/>
<path d="M1253 2285 c0 -8 4 -12 9 -9 5 3 6 10 3 15 -9 13 -12 11 -12 -6z"/>
<path d="M3940 2239 c0 -5 5 -7 10 -4 6 3 10 8 10 11 0 2 -4 4 -10 4 -5 0 -10
-5 -10 -11z"/>
<path d="M1988 2203 c7 -3 16 -2 19 1 4 3 -2 6 -13 5 -11 0 -14 -3 -6 -6z"/>
<path d="M4195 2121 c-3 -5 -2 -12 3 -15 5 -3 9 1 9 9 0 17 -3 19 -12 6z"/>
<path d="M4270 2059 c0 -5 -5 -7 -12 -3 -7 4 -8 3 -4 -4 4 -6 13 -9 21 -6 8 4
12 10 9 15 -7 12 -14 11 -14 -2z"/>
<path d="M3115 2051 c-3 -5 0 -13 6 -17 7 -4 9 -3 5 4 -3 5 0 13 6 15 9 4 10
6 1 6 -6 1 -14 -3 -18 -8z"/>
<path d="M856 1883 c-6 -14 -5 -15 5 -6 7 7 10 15 7 18 -3 3 -9 -2 -12 -12z"/>
<path d="M4415 1880 c3 -5 8 -10 11 -10 2 0 4 5 4 10 0 6 -5 10 -11 10 -5 0
-7 -4 -4 -10z"/>
<path d="M2187 1843 c3 -7 6 -13 8 -13 2 0 5 6 8 13 3 8 -1 14 -8 14 -7 0 -11
-6 -8 -14z"/>
<path d="M2930 1761 c0 -6 4 -13 10 -16 6 -3 7 1 4 9 -7 18 -14 21 -14 7z"/>
<path d="M3915 1720 c3 -5 8 -10 11 -10 2 0 4 5 4 10 0 6 -5 10 -11 10 -5 0
-7 -4 -4 -10z"/>
<path d="M4335 1699 c-4 -6 -5 -12 -2 -15 2 -3 7 2 10 11 7 17 1 20 -8 4z"/>
<path d="M2900 1680 c0 -5 5 -10 11 -10 5 0 7 5 4 10 -3 6 -8 10 -11 10 -2 0
-4 -4 -4 -10z"/>
<path d="M3974 1662 c3 -5 0 -13 -6 -15 -9 -4 -10 -6 -1 -6 17 -1 25 16 12 25
-7 4 -9 3 -5 -4z"/>
<path d="M2321 1641 c-8 -5 -9 -11 -3 -15 5 -3 12 1 16 9 6 17 6 18 -13 6z"/>
<path d="M2760 1440 c0 -5 5 -10 11 -10 5 0 7 5 4 10 -3 6 -8 10 -11 10 -2 0
-4 -4 -4 -10z"/>
<path d="M1130 1430 c0 -5 5 -10 11 -10 5 0 7 5 4 10 -3 6 -8 10 -11 10 -2 0
-4 -4 -4 -10z"/>
<path d="M1860 1386 c0 -2 7 -6 15 -10 8 -3 15 -1 15 4 0 6 -7 10 -15 10 -8 0
-15 -2 -15 -4z"/>
<path d="M1161 1364 c0 -11 3 -14 6 -6 3 7 2 16 -1 19 -3 4 -6 -2 -5 -13z"/>
<path d="M2473 1354 c9 -11 15 -23 12 -26 -3 -2 1 -5 8 -5 8 0 14 6 14 14 0 7
-3 11 -5 8 -3 -3 -15 3 -26 12 -21 18 -21 18 -3 -3z"/>
<path d="M2690 1359 c0 -5 5 -7 10 -4 6 3 10 8 10 11 0 2 -4 4 -10 4 -5 0 -10
-5 -10 -11z"/>
<path d="M4086 1311 c-3 -5 1 -14 8 -20 12 -10 13 -8 9 8 -6 23 -9 25 -17 12z"/>
<path d="M1595 1260 c-3 -5 -1 -10 4 -10 6 0 11 5 11 10 0 6 -2 10 -4 10 -3 0
-8 -4 -11 -10z"/>
<path d="M1549 1223 c-12 -16 -12 -17 2 -6 9 7 20 9 24 5 5 -4 5 -1 1 6 -9 16
-11 15 -27 -5z"/>
<path d="M3215 1070 c-10 -11 -13 -20 -7 -20 7 0 12 5 12 11 0 5 5 7 12 3 6
-4 8 -3 4 4 -3 5 0 13 6 15 8 3 8 6 2 6 -6 1 -19 -8 -29 -19z"/>
<path d="M3170 1005 c0 -7 30 -13 34 -7 3 4 -4 9 -15 9 -10 1 -19 0 -19 -2z"/>
<path d="M2135 961 c-3 -5 0 -13 6 -17 7 -4 9 -3 5 4 -3 5 0 13 6 15 9 4 10 6
1 6 -6 1 -14 -3 -18 -8z"/>
<path d="M3146 928 c3 -5 10 -6 15 -3 13 9 11 12 -6 12 -8 0 -12 -4 -9 -9z"/>
<path d="M2180 900 c0 -5 5 -10 11 -10 5 0 7 5 4 10 -3 6 -8 10 -11 10 -2 0
-4 -4 -4 -10z"/>
<path d="M2230 766 c0 -2 7 -7 16 -10 8 -3 12 -2 9 4 -6 10 -25 14 -25 6z"/>
<path d="M2309 663 c-13 -16 -12 -17 4 -4 18 15 24 2 6 -16 -8 -8 -7 -13 3
-18 7 -5 10 -5 6 0 -4 4 -3 14 4 22 7 9 8 17 1 24 -7 7 -15 4 -24 -8z"/>
<path d="M2950 599 c0 -5 5 -7 10 -4 6 3 10 8 10 11 0 2 -4 4 -10 4 -5 0 -10
-5 -10 -11z"/>
<path d="M2557 279 c7 -7 15 -10 18 -7 3 3 -2 9 -12 12 -14 6 -15 5 -6 -5z"/>
</g>
</svg>
